<svg width="43" height="43" viewBox="0 0 43 43" fill="none" xmlns="http://www.w3.org/2000/svg">
<g filter="url(#filter0_d)">
<circle cx="21.5" cy="19.5" r="17.5" fill="#0B852D"/>
</g>
<g clip-path="url(#clip0)">
<path d="M15.65 18.85H20.85V13.65C20.85 13.2912 21.1412 13 21.5 13C21.8588 13 22.15 13.2912 22.15 13.65V18.85H27.35C27.7088 18.85 28 19.1412 28 19.5C28 19.8588 27.7088 20.15 27.35 20.15H22.15V25.35C22.15 25.7088 21.8588 26 21.5 26C21.1412 26 20.85 25.7088 20.85 25.35V20.15H15.65C15.2912 20.15 15 19.8588 15 19.5C15 19.1412 15.2912 18.85 15.65 18.85Z" fill="white"/>
</g>
<defs>
<filter id="filter0_d" x="0" y="0" width="43" height="43" filterUnits="userSpaceOnUse" color-interpolation-filters="sRGB">
<feFlood flood-opacity="0" result="BackgroundImageFix"/>
<feColorMatrix in="SourceAlpha" type="matrix" values="0 0 0 0 0 0 0 0 0 0 0 0 0 0 0 0 0 0 127 0"/>
<feOffset dy="2"/>
<feGaussianBlur stdDeviation="2"/>
<feColorMatrix type="matrix" values="0 0 0 0 0 0 0 0 0 0 0 0 0 0 0 0 0 0 0.25 0"/>
<feBlend mode="normal" in2="BackgroundImageFix" result="effect1_dropShadow"/>
<feBlend mode="normal" in="SourceGraphic" in2="effect1_dropShadow" result="shape"/>
</filter>
<clipPath id="clip0">
<rect width="13" height="13" fill="white" transform="matrix(-1 0 0 1 28 13)"/>
</clipPath>
</defs>
</svg>
