<svg width="30" height="32" viewBox="0 0 30 32" fill="none" xmlns="http://www.w3.org/2000/svg">
<path d="M29.8697 5.10669C28.9875 3.58244 27.7199 2.30406 26.2038 1.40981C24.6402 0.4875 22.8494 0 21.0249 0C19.2005 0 17.4096 0.4875 15.8459 1.40981C14.3298 2.30412 13.0622 3.5825 12.1801 5.10669C12 5.41788 12.0137 5.8045 12.2153 6.10213L17.0748 13.2752V30.0584C17.0748 31.129 17.9458 32 19.0164 32H23.0332C24.1038 32 24.9748 31.129 24.9748 30.0584V13.2751L29.8343 6.10206C30.0361 5.8045 30.0497 5.41788 29.8697 5.10669ZM23.0999 30.0584C23.0999 30.0926 23.0675 30.125 23.0332 30.125H19.0165C18.9822 30.125 18.9499 30.0926 18.9499 30.0584V13.925H20.5164C20.5185 13.925 20.5206 13.9253 20.5226 13.9253C20.5247 13.9253 20.5267 13.925 20.5287 13.925H21.521C21.5231 13.925 21.5251 13.9253 21.5271 13.9253C21.5292 13.9253 21.5312 13.925 21.5333 13.925H23.0999V30.0584ZM23.5401 12.05H22.8277L23.4206 10.2714C23.5843 9.78025 23.3188 9.24931 22.8276 9.08556C22.3364 8.92188 21.8055 9.18738 21.6417 9.6785L21.0249 11.5291L20.408 9.6785C20.2442 9.18731 19.7134 8.92181 19.2221 9.08556C18.7309 9.24931 18.4654 9.78019 18.6292 10.2714L19.222 12.05H18.5096L14.1099 5.55569C15.6532 3.27163 18.2522 1.875 21.0249 1.875C23.7976 1.875 26.3966 3.27163 27.9399 5.55562L23.5401 12.05Z" fill="black" fill-opacity="0.3"/>
<path d="M9.97909 21.0875H9.91246V10.9792C9.91246 10.4615 9.49271 10.0417 8.97496 10.0417H8.90834V1.94165C8.90834 1.00928 8.24303 0.306213 7.36084 0.306213C7.13778 0.306213 6.91221 0.351213 6.69034 0.440026L3.53409 1.70246C2.66659 2.04946 2.0124 3.01571 2.0124 3.95003V10.0417H1.94578C1.42803 10.0417 1.00828 10.4615 1.00828 10.9792V21.0875H0.94165C0.4239 21.0875 0.00415039 21.5073 0.00415039 22.025V30.0583C0.00415039 31.129 0.875213 32 1.94578 32H8.97496C10.0456 32 10.9166 31.129 10.9166 30.0583V22.025C10.9166 21.5073 10.4968 21.0875 9.97909 21.0875ZM3.8874 3.95003C3.8874 3.78084 4.0734 3.50615 4.23046 3.44334L7.03328 2.32221V10.0417H3.8874V3.95003ZM2.88328 11.9167H2.9499H7.97078H8.0374V21.0875H2.88328V11.9167ZM9.04159 30.0584C9.04159 30.0926 9.00921 30.125 8.97496 30.125H1.94578C1.91153 30.125 1.87915 30.0926 1.87915 30.0584V22.9625H1.94578H8.97496H9.04159V30.0584Z" fill="black" fill-opacity="0.3"/>
</svg>
