<svg width="24" height="25" viewBox="0 0 24 25" fill="none" xmlns="http://www.w3.org/2000/svg">
<path d="M12 0.425659C5.3868 0.425659 0 5.81245 0 12.4257C0 19.0389 5.3868 24.4257 12 24.4257C18.6132 24.4257 24 19.0389 24 12.4257C24 5.81245 18.6132 0.425659 12 0.425659ZM12 2.82566C17.3161 2.82566 21.6 7.10951 21.6 12.4257C21.6 17.7418 17.3161 22.0257 12 22.0257C6.68385 22.0257 2.4 17.7418 2.4 12.4257C2.4 7.10951 6.68385 2.82566 12 2.82566ZM8.04844 6.77722L6.35156 8.4741L10.3031 12.4257L6.35156 16.3772L8.04844 18.0741L12 14.1225L15.9516 18.0741L17.6484 16.3772L13.6969 12.4257L17.6484 8.4741L15.9516 6.77722L12 10.7288L8.04844 6.77722Z" fill="white"/>
</svg>
