<svg width="65" height="65" viewBox="0 0 65 65" fill="none" xmlns="http://www.w3.org/2000/svg">
<g filter="url(#filter0_d)">
<circle cx="32.5" cy="32.5" r="12.5" fill="white"/>
</g>
<g clip-path="url(#clip0)">
<path d="M33.4415 32.0007L36.908 28.5342C37.03 28.4122 37.03 28.2143 36.908 28.0923C36.7859 27.9702 36.5881 27.9702 36.466 28.0923L32.9995 31.5588L29.533 28.0923C29.411 27.9702 29.2131 27.9702 29.091 28.0923C28.969 28.2143 28.969 28.4122 29.091 28.5342L32.5576 32.0007L29.091 35.4673C28.969 35.5893 28.969 35.7872 29.091 35.9092C29.1521 35.9702 29.232 36.0007 29.312 36.0007C29.392 36.0007 29.472 35.9702 29.533 35.9092L32.9995 32.4427L36.466 35.9092C36.527 35.9702 36.607 36.0007 36.687 36.0007C36.767 36.0007 36.847 35.9702 36.908 35.9092C37.03 35.7872 37.03 35.5893 36.908 35.4673L33.4415 32.0007Z" fill="black"/>
</g>
<defs>
<filter id="filter0_d" x="0" y="0" width="65" height="65" filterUnits="userSpaceOnUse" color-interpolation-filters="sRGB">
<feFlood flood-opacity="0" result="BackgroundImageFix"/>
<feColorMatrix in="SourceAlpha" type="matrix" values="0 0 0 0 0 0 0 0 0 0 0 0 0 0 0 0 0 0 127 0"/>
<feOffset/>
<feGaussianBlur stdDeviation="10"/>
<feColorMatrix type="matrix" values="0 0 0 0 0 0 0 0 0 0 0 0 0 0 0 0 0 0 0.15 0"/>
<feBlend mode="normal" in2="BackgroundImageFix" result="effect1_dropShadow"/>
<feBlend mode="normal" in="SourceGraphic" in2="effect1_dropShadow" result="shape"/>
</filter>
<clipPath id="clip0">
<rect width="8" height="8" fill="white" transform="translate(29 28)"/>
</clipPath>
</defs>
</svg>
