<svg width="12" height="12" viewBox="0 0 12 12" fill="none" xmlns="http://www.w3.org/2000/svg">
<g clip-path="url(#clip0)">
<path d="M3.89062 7.7579H10.2423C10.3996 7.7579 10.5375 7.6539 10.5801 7.50284L11.9865 2.58087C12.0167 2.47476 11.996 2.36078 11.9294 2.27261C11.8628 2.18472 11.7591 2.13281 11.6485 2.13281H3.07901L2.8277 1.00195C2.79199 0.840912 2.64917 0.726562 2.48438 0.726562H0.351562C0.157288 0.726562 0 0.88385 0 1.07812C0 1.27249 0.157288 1.42969 0.351562 1.42969H2.20221L3.47177 7.14258C3.09824 7.30499 2.83594 7.67679 2.83594 8.10947C2.83594 8.69101 3.30908 9.16415 3.89062 9.16415H10.2423C10.4366 9.16415 10.5938 9.00696 10.5938 8.81259C10.5938 8.61832 10.4366 8.46103 10.2423 8.46103H3.89062C3.69699 8.46103 3.53906 8.30347 3.53906 8.10947C3.53906 7.91547 3.69699 7.7579 3.89062 7.7579Z" fill="white"/>
<path d="M3.53906 10.2189C3.53906 10.8005 4.01221 11.2736 4.59384 11.2736C5.17538 11.2736 5.64853 10.8005 5.64853 10.2189C5.64853 9.63733 5.17538 9.16418 4.59384 9.16418C4.01221 9.16418 3.53906 9.63733 3.53906 10.2189Z" fill="white"/>
<path d="M8.48438 10.2189C8.48438 10.8005 8.95752 11.2736 9.53906 11.2736C10.1207 11.2736 10.5938 10.8005 10.5938 10.2189C10.5938 9.63733 10.1207 9.16418 9.53906 9.16418C8.95752 9.16418 8.48438 9.63733 8.48438 10.2189Z" fill="white"/>
</g>
<defs>
<clipPath id="clip0">
<rect width="12" height="12" fill="white"/>
</clipPath>
</defs>
</svg>
