<svg width="18" height="18" viewBox="0 0 18 18" fill="none" xmlns="http://www.w3.org/2000/svg">
<g clip-path="url(#clip0)">
<path d="M12.2351 5.45447C12.0406 5.45447 11.8828 5.61157 11.8828 5.80589C11.8828 6.00008 12.0406 6.15746 12.2351 6.15746C12.4299 6.15746 12.5873 6.00008 12.5873 5.80589C12.5873 5.61157 12.4299 5.45447 12.2351 5.45447Z" fill="#B2B2B2"/>
<path d="M5.83467 11.842C5.63983 11.842 5.48242 11.9996 5.48242 12.1936C5.48242 12.3881 5.63983 12.5452 5.83467 12.5452C6.0291 12.5452 6.18692 12.3881 6.18692 12.1936C6.18692 11.9996 6.0291 11.842 5.83467 11.842Z" fill="#B2B2B2"/>
<path d="M17.6146 2.16283C17.4957 2.13523 17.3707 2.17107 17.2849 2.25759L15.8245 3.7266H15.1244L14.3538 2.92968V2.2212L15.7932 0.763172C15.8783 0.676929 15.913 0.552921 15.8848 0.434955C15.8567 0.317126 15.7698 0.222095 15.6547 0.183368C15.2931 0.0616942 14.9147 3.33534e-05 14.5299 3.33534e-05C13.3826 3.33534e-05 12.3403 0.533969 11.6702 1.46492C11.043 2.33641 10.8497 3.40442 11.1267 4.42657L8.53199 7.01618L4.20922 2.69196V1.84327C4.20922 1.71981 4.14428 1.60527 4.03819 1.54183L1.54753 0.0501585C1.40883 -0.0329257 1.23147 -0.0110903 1.11726 0.10303L0.121052 1.09716C0.00684548 1.21128 -0.0150326 1.38829 0.0680765 1.52672L1.56239 4.01252C1.62596 4.1184 1.74058 4.18308 1.86428 4.18322L2.71436 4.18349L7.03755 8.50771L4.45277 11.0874C3.42863 10.8111 2.35798 11.0044 1.48437 11.6307C0.552146 12.2991 0.0175781 13.3391 0.0175781 14.4841C0.0175781 14.8681 0.0793596 15.2459 0.201271 15.6067C0.240211 15.7222 0.336392 15.8094 0.455277 15.8368C0.574299 15.8644 0.6991 15.8286 0.785099 15.7421L2.24529 14.2732H2.94924L3.7513 15.0737V15.7763L2.27955 17.2336C2.19286 17.3194 2.15695 17.444 2.18461 17.5628C2.21213 17.6814 2.2995 17.7774 2.41522 17.8163C2.77669 17.938 3.15522 17.9996 3.53995 17.9996C4.68724 17.9996 5.72913 17.466 6.39895 16.5356C7.02654 15.6637 7.22014 14.5952 6.94329 13.5731L9.01923 11.5012L9.49477 12.0167L9.27654 12.2344C9.13894 12.3717 9.13894 12.5944 9.27654 12.7317C9.41413 12.8689 9.63704 12.8689 9.77478 12.7317L9.97237 12.5345L14.4341 17.3715C14.4374 17.3751 14.4409 17.3785 14.4443 17.3819C15.2699 18.2059 16.6075 18.2062 17.4335 17.3818C18.2571 16.5593 18.2571 15.2211 17.4335 14.3986C17.4299 14.395 17.4262 14.3916 17.4225 14.3881L12.5684 9.94363L12.7638 9.74862C12.9014 9.61143 12.9014 9.38882 12.7638 9.25149C12.6262 9.11416 12.4033 9.11416 12.2656 9.25149L12.0489 9.46792L11.5314 8.99386L13.6173 6.91195C13.9139 6.99105 14.2199 7.03115 14.5299 7.03115C16.4722 7.03115 18.0523 5.45406 18.0523 3.51566C18.0523 3.13155 17.9905 2.7539 17.8686 2.39299C17.8296 2.2775 17.7334 2.1903 17.6146 2.16283ZM3.10981 3.58364C3.04377 3.51758 2.95419 3.48394 2.86062 3.48394L2.06393 3.48366L0.813719 1.40038L1.42094 0.794345L3.50472 2.04239V2.83753C3.50472 2.93064 3.54173 3.0199 3.60764 3.08582L8.03389 7.51345L7.53565 8.01058L3.10981 3.58364ZM12.0698 10.4413L16.9403 14.9008C17.4844 15.4496 17.4827 16.3381 16.9352 16.8848C16.3865 17.4325 15.4982 17.4341 14.9472 16.8896L10.4709 12.0368L12.0698 10.4413ZM11.5502 9.96546L9.99328 11.5191L9.51775 11.0035L11.0327 9.4914L11.5502 9.96546ZM14.5299 6.32802C14.2218 6.32802 13.9188 6.27872 13.6296 6.18149C13.5029 6.13906 13.3628 6.17174 13.2681 6.26609C11.5022 8.02857 7.69705 11.8261 6.29589 13.2247C6.20123 13.3192 6.16834 13.459 6.21113 13.5856C6.50394 14.4534 6.36387 15.379 5.82668 16.1254C5.29102 16.8696 4.45745 17.2965 3.53995 17.2965C3.43688 17.2965 3.33437 17.2909 3.23283 17.28L4.35163 16.1721C4.41823 16.1061 4.4558 16.0163 4.4558 15.9225V14.928C4.4558 14.8347 4.41865 14.7453 4.3526 14.6794L3.34414 13.6729C3.2781 13.607 3.18852 13.5699 3.09509 13.5699H2.09861C2.00463 13.5699 1.91464 13.6074 1.84846 13.6739L0.738453 14.7905C0.727445 14.6892 0.721941 14.5869 0.721941 14.484C0.721941 13.5682 1.1496 12.7364 1.89538 12.2017C2.64308 11.6656 3.57063 11.5257 4.44025 11.818C4.56698 11.8607 4.70705 11.8279 4.80172 11.7334C4.82112 11.7142 11.769 4.77978 11.7739 4.77483C11.8686 4.68035 11.9014 4.54069 11.8587 4.41407C11.5658 3.54628 11.7056 2.62096 12.2423 1.87513C12.7784 1.13025 13.6121 0.703159 14.5297 0.703159C14.636 0.703159 14.7415 0.709064 14.8461 0.7206L13.7505 1.83036C13.6856 1.89614 13.6493 1.98471 13.6493 2.077V3.07154C13.6493 3.16272 13.6846 3.2502 13.7481 3.31571L14.7213 4.3222C14.7876 4.39086 14.8791 4.42959 14.9747 4.42959H15.9712C16.0651 4.42959 16.1551 4.39223 16.2212 4.32563L17.3312 3.20914C17.3422 3.31049 17.3478 3.4128 17.3478 3.51566C17.3478 5.06638 16.0836 6.32802 14.5299 6.32802Z" fill="#B2B2B2"/>
<path d="M10.9896 6.55161L6.58161 10.9509C6.44415 11.0881 6.44415 11.3107 6.58161 11.4481C6.71921 11.5854 6.94225 11.5854 7.07985 11.4481L11.4878 7.04874C11.6254 6.91154 11.6254 6.68893 11.4878 6.55161C11.3502 6.41428 11.1272 6.41428 10.9896 6.55161Z" fill="#B2B2B2"/>
<path d="M15.4412 15.8904C15.5788 16.0273 15.8019 16.0273 15.9395 15.8896C16.0768 15.7521 16.0764 15.5295 15.9386 15.3925L12.7636 12.2338C12.6258 12.0967 12.4026 12.0971 12.2655 12.2346C12.128 12.3722 12.1284 12.5947 12.2661 12.7317L15.4412 15.8904Z" fill="#B2B2B2"/>
</g>
<defs>
<clipPath id="clip0">
<rect width="18" height="18" fill="white"/>
</clipPath>
</defs>
</svg>
