<svg width="18" height="14" viewBox="0 0 18 14" fill="none" xmlns="http://www.w3.org/2000/svg">
<path d="M17.055 10.1578L9.52734 5.79555V5.47099C9.52734 5.10086 9.73856 4.75658 10.0786 4.5725C10.8447 4.15783 11.3 3.35912 11.267 2.48809C11.2223 1.31067 10.2651 0.353296 9.08789 0.308613C8.46499 0.284706 7.87511 0.509566 7.42686 0.941038C6.97834 1.37283 6.73133 1.95347 6.73133 2.57594C6.73133 2.86718 6.96744 3.10329 7.25868 3.10329C7.54991 3.10329 7.78602 2.86718 7.78602 2.57594C7.78602 2.24273 7.91824 1.93199 8.15832 1.70083C8.39813 1.47 8.71365 1.34952 9.04785 1.36253C9.67732 1.38643 10.1891 1.89841 10.2131 2.5281C10.2308 2.99487 9.98687 3.42282 9.57656 3.64497C8.89566 4.01355 8.47266 4.71323 8.47266 5.47099V5.79555L0.945035 10.1578C0.362109 10.4956 0 11.124 0 11.7978C0 12.843 0.850148 13.6933 1.89513 13.6933H16.1049C17.1499 13.6933 18 12.8429 18 11.7978C18 11.124 17.6379 10.4956 17.055 10.1578ZM16.1049 12.6386H1.89513C1.4317 12.6386 1.05469 12.2614 1.05469 11.7978C1.05469 11.4989 1.21528 11.2202 1.47386 11.0704L9 6.70898L16.5261 11.0704C16.7847 11.2202 16.9453 11.4989 16.9453 11.7978C16.9453 12.2614 16.5683 12.6386 16.1049 12.6386Z" fill="white"/>
</svg>
