<svg width="26" height="25" viewBox="0 0 26 25" fill="none" xmlns="http://www.w3.org/2000/svg">
<path d="M12.5 0.416656C5.83721 0.416656 0.416626 5.83724 0.416626 12.5C0.416626 19.1627 5.83721 24.5833 12.5 24.5833C19.1627 24.5833 24.5833 19.1627 24.5833 12.5C24.5833 11.1394 24.3464 9.83465 23.9296 8.61303L21.9731 10.5695C22.1 11.193 22.1666 11.839 22.1666 12.5C22.1666 17.8299 17.8299 22.1667 12.5 22.1667C7.17 22.1667 2.83329 17.8299 2.83329 12.5C2.83329 7.17003 7.17 2.83332 12.5 2.83332C14.4732 2.83332 16.3085 3.43011 17.8407 4.44994L19.5706 2.72004C17.5793 1.27729 15.1402 0.416656 12.5 0.416656ZM23.729 1.97899L11.2916 14.4163L7.31262 10.4373L5.60396 12.146L11.2916 17.8336L25.4376 3.68765L23.729 1.97899Z" fill="white"/>
</svg>
