<svg width="33" height="33" viewBox="0 0 33 33" fill="none" xmlns="http://www.w3.org/2000/svg">
<circle cx="16.5" cy="16.5" r="16.5" fill="white" fill-opacity="0.1"/>
<g clip-path="url(#clip0)">
<path d="M23.4191 8.14097C23.3718 8.10513 23.2747 8.04638 23.2081 8.00729C21.9978 7.27781 20.1672 6.44601 18.51 6.69511C15.7353 7.11392 12.4213 11.2623 11.4716 12.524C10.5223 13.786 7.45346 18.119 7.81937 20.8985C7.87921 21.362 8.02814 21.8443 8.26224 22.3314C8.80263 23.456 9.70899 24.4276 10.365 25.0363C10.365 25.0363 10.5027 25.1677 10.5676 25.2172C10.7334 25.3415 10.9656 25.4294 11.2775 25.4858C11.4368 25.5146 11.6008 25.5073 11.71 25.496C11.8316 25.4833 12.066 25.4466 12.2721 25.3444C12.554 25.2043 12.7509 25.057 12.8764 24.8922C12.968 24.7702 14.6753 22.0521 14.6848 22.035L14.6953 22.0145C14.7857 21.8674 14.8526 21.7168 14.8942 21.5663C15.0032 21.172 14.9654 20.7519 14.7886 20.3828C14.676 20.1482 14.5089 19.9439 14.3085 19.7937L13.2941 19.0263C13.1988 18.9543 13.0931 18.8132 13.0747 18.7614C13.0585 18.7065 13.0516 18.6679 13.0483 18.6429L17.8317 12.2857C17.8435 12.2704 17.8556 12.2621 17.8643 12.2573C17.8729 12.2592 17.8805 12.262 17.8863 12.2631C17.9316 12.2798 18.0789 12.3657 18.2275 12.4767L19.2417 13.235C19.775 13.6366 20.5429 13.6701 21.1028 13.3209C21.3024 13.1965 21.4449 13.0398 21.5121 12.9671L21.5503 12.929C21.5677 12.9103 23.6695 10.5527 23.7468 10.4488C23.9409 10.1907 24.0205 9.80792 23.9908 9.27876C23.9742 8.98468 23.8498 8.62663 23.6952 8.42736C23.5951 8.29936 23.5045 8.20515 23.4191 8.14097ZM22.9169 9.80686C22.809 9.93789 20.9002 12.0833 20.8001 12.1956L20.7217 12.2754C20.6924 12.3076 20.6233 12.3833 20.5468 12.4313C20.3462 12.5562 20.0667 12.5445 19.8697 12.3964L18.8544 11.6371C18.7359 11.5483 18.4339 11.3338 18.1934 11.2612C18.0331 11.2132 17.8962 11.1969 17.7408 11.2127C17.445 11.254 17.1815 11.4086 16.9957 11.6521L12.1642 18.0734C11.9805 18.3177 11.9482 18.6485 12.0684 19.0569C12.1613 19.3725 12.4409 19.6958 12.6613 19.8626L13.6776 20.6312C13.7458 20.6825 13.8031 20.7538 13.8434 20.8367C13.9098 20.9752 13.9244 21.1395 13.8836 21.2871C13.8599 21.3732 13.8132 21.4476 13.7978 21.4721C13.7833 21.4954 13.773 21.514 13.7649 21.5307C13.6033 21.7909 12.1298 24.1288 12.0433 24.2562C12.0426 24.2567 11.9906 24.3137 11.8059 24.4057C11.7798 24.4186 11.7015 24.4429 11.6018 24.4533C11.5298 24.4608 11.4821 24.4576 11.4645 24.4542C11.2726 24.4194 11.2026 24.3813 11.2012 24.3815C11.164 24.3513 11.0986 24.2871 11.0873 24.2764C10.4888 23.7207 9.67658 22.8538 9.20743 21.8772C9.0218 21.4911 8.90484 21.1168 8.85925 20.7632C8.60925 18.8643 10.5621 15.4774 12.3098 13.1545C14.0572 10.8313 16.7712 8.01754 18.6664 7.73174C20.0326 7.52489 21.603 8.26396 22.6547 8.89753L22.6952 8.92178C22.7191 8.93579 22.7639 8.961 22.7836 8.97441C22.811 8.9979 22.839 9.03433 22.8617 9.06324C22.8901 9.10701 22.9384 9.24707 22.9432 9.33721C22.9603 9.6467 22.9199 9.79495 22.9169 9.80686Z" fill="white"/>
</g>
<defs>
<clipPath id="clip0">
<rect width="18" height="18" fill="white" transform="translate(6.11719 7.98096) rotate(-5.9426)"/>
</clipPath>
</defs>
</svg>
