<svg width="65" height="65" viewBox="0 0 65 65" fill="none" xmlns="http://www.w3.org/2000/svg">
<g filter="url(#filter0_d)">
<circle cx="32.5" cy="32.5" r="12.5" fill="white"/>
</g>
<g clip-path="url(#clip0)">
<path d="M33.4417 32.0007L36.9082 28.5342C37.0303 28.4122 37.0303 28.2143 36.9082 28.0923C36.7862 27.9702 36.5883 27.9702 36.4663 28.0923L32.9998 31.5588L29.5332 28.0923C29.4112 27.9702 29.2133 27.9702 29.0913 28.0923C28.9693 28.2143 28.9692 28.4122 29.0913 28.5342L32.5578 32.0007L29.0913 35.4673C28.9692 35.5893 28.9692 35.7872 29.0913 35.9092C29.1523 35.9702 29.2323 36.0007 29.3123 36.0007C29.3923 36.0007 29.4722 35.9702 29.5333 35.9092L32.9998 32.4427L36.4663 35.9092C36.5273 35.9702 36.6073 36.0007 36.6872 36.0007C36.7672 36.0007 36.8472 35.9702 36.9082 35.9092C37.0303 35.7872 37.0303 35.5893 36.9082 35.4673L33.4417 32.0007Z" fill="black"/>
</g>
<defs>
<filter id="filter0_d" x="0" y="0" width="65" height="65" filterUnits="userSpaceOnUse" color-interpolation-filters="sRGB">
<feFlood flood-opacity="0" result="BackgroundImageFix"/>
<feColorMatrix in="SourceAlpha" type="matrix" values="0 0 0 0 0 0 0 0 0 0 0 0 0 0 0 0 0 0 127 0"/>
<feOffset/>
<feGaussianBlur stdDeviation="10"/>
<feColorMatrix type="matrix" values="0 0 0 0 0 0 0 0 0 0 0 0 0 0 0 0 0 0 0.15 0"/>
<feBlend mode="normal" in2="BackgroundImageFix" result="effect1_dropShadow"/>
<feBlend mode="normal" in="SourceGraphic" in2="effect1_dropShadow" result="shape"/>
</filter>
<clipPath id="clip0">
<rect width="8" height="8" fill="white" transform="translate(29 28)"/>
</clipPath>
</defs>
</svg>
