<svg width="13" height="14" viewBox="0 0 13 14" fill="none" xmlns="http://www.w3.org/2000/svg">
<g clip-path="url(#clip0)">
<path d="M8.29273 5.07227C8.12457 5.07227 7.98828 5.21904 7.98828 5.40013V11.5969C7.98828 11.7778 8.12457 11.9247 8.29273 11.9247C8.46089 11.9247 8.59718 11.7778 8.59718 11.5969V5.40013C8.59718 5.21904 8.46089 5.07227 8.29273 5.07227Z" fill="#B6160C"/>
<path d="M4.70093 5.07227C4.53277 5.07227 4.39648 5.21904 4.39648 5.40013V11.5969C4.39648 11.7778 4.53277 11.9247 4.70093 11.9247C4.8691 11.9247 5.00538 11.7778 5.00538 11.5969V5.40013C5.00538 5.21904 4.8691 5.07227 4.70093 5.07227Z" fill="#B6160C"/>
<path d="M2.08246 4.16806V12.246C2.08246 12.7235 2.24503 13.1719 2.52902 13.4936C2.81171 13.8162 3.20511 13.9994 3.61683 14.0001H9.3771C9.78893 13.9994 10.1823 13.8162 10.4649 13.4936C10.7489 13.1719 10.9115 12.7235 10.9115 12.246V4.16806C11.476 4.00668 11.8418 3.41934 11.7663 2.79549C11.6907 2.17178 11.1972 1.70521 10.6131 1.70508H9.05433V1.29524C9.05612 0.950597 8.92958 0.619656 8.70303 0.376189C8.47647 0.132849 8.1687 -0.00265246 7.84867 0.000165149H5.14526C4.82523 -0.00265246 4.51745 0.132849 4.2909 0.376189C4.06435 0.619656 3.93781 0.950597 3.93959 1.29524V1.70508H2.38084C1.79668 1.70521 1.30326 2.17178 1.22762 2.79549C1.1521 3.41934 1.51792 4.00668 2.08246 4.16806ZM9.3771 13.3444H3.61683C3.0963 13.3444 2.69135 12.8628 2.69135 12.246V4.19687H10.3026V12.246C10.3026 12.8628 9.89763 13.3444 9.3771 13.3444ZM4.54849 1.29524C4.54647 1.12452 4.60879 0.960203 4.72129 0.839686C4.83367 0.719169 4.98661 0.652955 5.14526 0.655901H7.84867C8.00731 0.652955 8.16025 0.719169 8.27264 0.839686C8.38514 0.960075 8.44746 1.12452 8.44543 1.29524V1.70508H4.54849V1.29524ZM2.38084 2.36081H10.6131C10.9158 2.36081 11.1611 2.62503 11.1611 2.95098C11.1611 3.27692 10.9158 3.54114 10.6131 3.54114H2.38084C2.07818 3.54114 1.83283 3.27692 1.83283 2.95098C1.83283 2.62503 2.07818 2.36081 2.38084 2.36081Z" fill="#B6160C"/>
<path d="M6.49682 5.07227C6.32867 5.07227 6.19238 5.21904 6.19238 5.40013V11.5969C6.19238 11.7778 6.32867 11.9247 6.49682 11.9247C6.66498 11.9247 6.80127 11.7778 6.80127 11.5969V5.40013C6.80127 5.21904 6.66498 5.07227 6.49682 5.07227Z" fill="#B6160C"/>
</g>
<defs>
<clipPath id="clip0">
<rect width="13" height="14" fill="white"/>
</clipPath>
</defs>
</svg>
