<svg width="34" height="34" viewBox="0 0 34 34" fill="none" xmlns="http://www.w3.org/2000/svg">
<g filter="url(#filter0_d)">
<circle cx="17" cy="15" r="13" fill="#B6160C"/>
</g>
<g clip-path="url(#clip0)">
<path d="M18.8045 13.3477C18.6665 13.3477 18.5547 13.4735 18.5547 13.6287V18.9402C18.5547 19.0953 18.6665 19.2212 18.8045 19.2212C18.9425 19.2212 19.0543 19.0953 19.0543 18.9402V13.6287C19.0543 13.4735 18.9425 13.3477 18.8045 13.3477Z" fill="white"/>
<path d="M15.8572 13.3477C15.7192 13.3477 15.6074 13.4735 15.6074 13.6287V18.9402C15.6074 19.0953 15.7192 19.2212 15.8572 19.2212C15.9952 19.2212 16.107 19.0953 16.107 18.9402V13.6287C16.107 13.4735 15.9952 13.3477 15.8572 13.3477Z" fill="white"/>
<path d="M13.7085 12.5726V19.4966C13.7085 19.9059 13.8419 20.2902 14.0749 20.566C14.3069 20.8425 14.6297 20.9995 14.9675 21.0001H19.6939C20.0318 20.9995 20.3546 20.8425 20.5864 20.566C20.8194 20.2902 20.9528 19.9059 20.9528 19.4966V12.5726C21.416 12.4343 21.7162 11.9309 21.6542 11.3962C21.5922 10.8615 21.1873 10.4616 20.708 10.4615H19.429V10.1102C19.4305 9.81482 19.3267 9.53115 19.1408 9.32246C18.9549 9.11389 18.7023 8.99774 18.4398 9.00016H16.2216C15.959 8.99774 15.7065 9.11389 15.5206 9.32246C15.3347 9.53115 15.2308 9.81482 15.2323 10.1102V10.4615H13.9533C13.474 10.4616 13.0692 10.8615 13.0071 11.3962C12.9451 11.9309 13.2453 12.4343 13.7085 12.5726ZM19.6939 20.4381H14.9675C14.5404 20.4381 14.2081 20.0253 14.2081 19.4966V12.5973H20.4532V19.4966C20.4532 20.0253 20.121 20.4381 19.6939 20.4381ZM15.7319 10.1102C15.7303 9.96389 15.7814 9.82305 15.8737 9.71975C15.9659 9.61645 16.0914 9.55969 16.2216 9.56222H18.4398C18.5699 9.55969 18.6954 9.61645 18.7876 9.71975C18.8799 9.82294 18.9311 9.96389 18.9294 10.1102V10.4615H15.7319V10.1102ZM13.9533 11.0236H20.708C20.9563 11.0236 21.1576 11.25 21.1576 11.5294C21.1576 11.8088 20.9563 12.0353 20.708 12.0353H13.9533C13.705 12.0353 13.5037 11.8088 13.5037 11.5294C13.5037 11.25 13.705 11.0236 13.9533 11.0236Z" fill="white"/>
<path d="M17.3309 13.3477C17.1929 13.3477 17.0811 13.4735 17.0811 13.6287V18.9402C17.0811 19.0953 17.1929 19.2212 17.3309 19.2212C17.4688 19.2212 17.5806 19.0953 17.5806 18.9402V13.6287C17.5806 13.4735 17.4688 13.3477 17.3309 13.3477Z" fill="white"/>
</g>
<defs>
<filter id="filter0_d" x="0" y="0" width="34" height="34" filterUnits="userSpaceOnUse" color-interpolation-filters="sRGB">
<feFlood flood-opacity="0" result="BackgroundImageFix"/>
<feColorMatrix in="SourceAlpha" type="matrix" values="0 0 0 0 0 0 0 0 0 0 0 0 0 0 0 0 0 0 127 0"/>
<feOffset dy="2"/>
<feGaussianBlur stdDeviation="2"/>
<feColorMatrix type="matrix" values="0 0 0 0 0 0 0 0 0 0 0 0 0 0 0 0 0 0 0.25 0"/>
<feBlend mode="normal" in2="BackgroundImageFix" result="effect1_dropShadow"/>
<feBlend mode="normal" in="SourceGraphic" in2="effect1_dropShadow" result="shape"/>
</filter>
<clipPath id="clip0">
<rect width="10.6667" height="12" fill="white" transform="translate(12 9)"/>
</clipPath>
</defs>
</svg>
