<svg width="33" height="33" viewBox="0 0 33 33" fill="none" xmlns="http://www.w3.org/2000/svg">
<path d="M21.0129 13.5665C20.4295 13.5665 19.8587 13.6495 19.3084 13.813C19.3302 13.6026 19.3415 13.3892 19.3415 13.1731C19.3415 12.1845 19.1146 11.2398 18.6671 10.3655C18.5688 10.1735 18.3335 10.0975 18.1415 10.1957C17.9495 10.294 17.8735 10.5293 17.9717 10.7214C18.3623 11.4844 18.5603 12.3093 18.5603 13.1731C18.5603 16.145 16.1425 18.5627 13.1707 18.5627C12.4779 18.5627 11.8031 18.433 11.1652 18.177C11.0201 18.1189 10.8542 18.1528 10.7436 18.2633L9.89008 19.117V17.6378C9.89008 17.5211 9.83786 17.4105 9.74774 17.3363C8.49793 16.3074 7.7811 14.79 7.7811 13.1731C7.7811 10.2012 10.1989 7.78345 13.1707 7.78345C13.888 7.78345 14.5844 7.92197 15.2406 8.19517C15.4524 8.2833 15.6607 8.38623 15.8598 8.50111C16.0466 8.60885 16.2854 8.54482 16.3932 8.35799C16.501 8.17119 16.4369 7.93232 16.2501 7.82455C16.022 7.69302 15.7834 7.57505 15.5409 7.47408C14.7891 7.16107 13.9917 7.00232 13.1708 7.00232C9.76821 7.00232 7 9.77053 7 13.1731C7 14.962 7.76621 16.6445 9.10899 17.8186V20.0598C9.10899 20.2178 9.20418 20.3602 9.35008 20.4206C9.3984 20.4406 9.44915 20.4504 9.49946 20.4504C9.6011 20.4504 9.70098 20.4107 9.77571 20.336L11.1179 18.9937C11.7761 19.2261 12.4653 19.3438 13.1708 19.3438C13.8248 19.3438 14.4552 19.2411 15.0472 19.0517C15.0333 19.2186 15.0259 19.3861 15.0259 19.5535C15.0259 20.4678 15.2267 21.3455 15.6228 22.1624C15.6903 22.3016 15.8295 22.3827 15.9744 22.3827C16.0316 22.3827 16.0897 22.3701 16.1445 22.3434C16.3386 22.2493 16.4197 22.0157 16.3256 21.8216C15.9814 21.1118 15.8069 20.3488 15.8069 19.5535C15.8069 19.2742 15.8297 18.9945 15.874 18.7193C17.4842 17.9312 18.7028 16.4625 19.1525 14.6903C19.7454 14.463 20.3702 14.3476 21.0129 14.3476C23.8835 14.3476 26.2189 16.683 26.2189 19.5535C26.2189 21.1482 25.5023 22.6333 24.2529 23.6283C24.1598 23.7024 24.1056 23.8148 24.1056 23.9338V25.6653L23.0358 24.5955C22.9316 24.4913 22.7777 24.4546 22.6378 24.5006C22.1144 24.6724 21.5677 24.7595 21.0129 24.7595C20.2191 24.7595 19.4572 24.5856 18.7484 24.2426C18.5544 24.1487 18.3207 24.2299 18.2267 24.424C18.1328 24.6182 18.214 24.8517 18.4082 24.9457C19.2239 25.3404 20.1003 25.5406 21.0129 25.5406C21.5691 25.5406 22.1185 25.4643 22.6494 25.3136L24.22 26.8842C24.2948 26.959 24.3946 26.9986 24.4963 26.9986C24.5466 26.9986 24.5974 26.9889 24.6457 26.9689C24.7916 26.9084 24.8868 26.766 24.8868 26.6081V24.1182C26.2323 22.9766 27 21.3238 27 19.5535C27 16.2523 24.3142 13.5665 21.0129 13.5665Z" fill="white"/>
<path d="M17.3877 23.289C17.3757 23.2774 17.3638 23.2658 17.352 23.254C17.1988 23.1022 16.9515 23.1033 16.7997 23.2565C16.6478 23.4096 16.649 23.6569 16.8021 23.8088C16.8159 23.8225 16.8297 23.836 16.8437 23.8495C16.9196 23.9232 17.0176 23.9598 17.1156 23.9598C17.2176 23.9598 17.3194 23.9201 17.396 23.8412C17.5461 23.6864 17.5424 23.4392 17.3877 23.289Z" fill="white"/>
<path d="M17.6991 8.9805C17.5295 8.79952 17.2833 8.82624 17.1432 8.95671C17.0032 9.08706 16.959 9.33077 17.1274 9.51284C17.1285 9.51409 17.1298 9.51538 17.1309 9.51663C17.2152 9.60534 17.3178 9.64335 17.4168 9.64335C17.5185 9.64335 17.6164 9.60323 17.687 9.53674C17.8261 9.40542 17.8687 9.16143 17.6991 8.9805Z" fill="white"/>
<path d="M11.4714 11.8248C11.3987 11.7522 11.2983 11.7104 11.1952 11.7104C11.0925 11.7104 10.9918 11.7522 10.9191 11.8248C10.8465 11.8975 10.8047 11.9982 10.8047 12.1009C10.8047 12.2037 10.8465 12.3044 10.9191 12.3771C10.9918 12.4497 11.0925 12.4915 11.1952 12.4915C11.298 12.4915 11.3987 12.4497 11.4714 12.3771C11.5444 12.3044 11.5858 12.2037 11.5858 12.1009C11.5858 11.9982 11.5444 11.8974 11.4714 11.8248Z" fill="white"/>
<path d="M15.4216 11.8248C15.3489 11.7522 15.2482 11.7104 15.1454 11.7104C15.0423 11.7104 14.9416 11.7522 14.8689 11.8248C14.7963 11.8975 14.7549 11.9982 14.7549 12.1009C14.7549 12.2037 14.7963 12.3044 14.8689 12.3771C14.942 12.4497 15.0427 12.4915 15.1454 12.4915C15.2482 12.4915 15.3485 12.4497 15.4216 12.3771C15.4942 12.3044 15.536 12.2037 15.536 12.1009C15.536 11.9982 15.4943 11.8974 15.4216 11.8248Z" fill="white"/>
<path d="M14.6664 14.132C14.4579 14.0762 14.2439 14.2001 14.1883 14.4085C14.0653 14.8689 13.647 15.1905 13.171 15.1905C12.695 15.1905 12.2767 14.8689 12.1537 14.4085C12.0981 14.2001 11.884 14.0761 11.6756 14.132C11.4672 14.1877 11.3434 14.4017 11.3991 14.6101C11.6132 15.4118 12.3418 15.9716 13.171 15.9716C14.0001 15.9716 14.7287 15.4118 14.9429 14.6101C14.9986 14.4017 14.8748 14.1876 14.6664 14.132Z" fill="white"/>
<path d="M19.3805 18.2322C19.3079 18.1596 19.2075 18.1178 19.1044 18.1178C19.0017 18.1178 18.9009 18.1596 18.8283 18.2322C18.7556 18.3049 18.7139 18.4056 18.7139 18.5083C18.7139 18.6115 18.7556 18.7118 18.8283 18.7844C18.9009 18.8571 19.0017 18.8989 19.1044 18.8989C19.2075 18.8989 19.3079 18.8571 19.3805 18.7844C19.4536 18.7118 19.495 18.6111 19.495 18.5083C19.495 18.4056 19.4536 18.3049 19.3805 18.2322Z" fill="white"/>
<path d="M23.1979 18.2323C23.1253 18.1596 23.0249 18.1179 22.9218 18.1179C22.8191 18.1179 22.7183 18.1596 22.6457 18.2323C22.573 18.3049 22.5312 18.4057 22.5312 18.5084C22.5312 18.6115 22.573 18.7119 22.6457 18.7845C22.7183 18.8572 22.8191 18.899 22.9218 18.899C23.0249 18.8989 23.1253 18.8571 23.1979 18.7845C23.2706 18.7119 23.3123 18.6111 23.3123 18.5084C23.3123 18.4057 23.2706 18.3049 23.1979 18.2323Z" fill="white"/>
<path d="M22.7378 21.7719C22.5293 20.9913 21.8197 20.4461 21.0123 20.4461C20.2049 20.4461 19.4953 20.9913 19.2868 21.7719C19.2311 21.9803 19.3549 22.1943 19.5633 22.25C19.7719 22.3059 19.9857 22.1819 20.0414 21.9735C20.1588 21.5341 20.5581 21.2272 21.0123 21.2272C21.4665 21.2272 21.8658 21.5341 21.9831 21.9735C22.0298 22.1482 22.1876 22.2634 22.3602 22.2634C22.3935 22.2634 22.4275 22.2591 22.4612 22.25C22.6697 22.1943 22.7935 21.9803 22.7378 21.7719Z" fill="white"/>
<circle cx="16.5" cy="16.5" r="16.5" fill="white" fill-opacity="0.1"/>
</svg>
