<svg width="24" height="22" viewBox="0 0 24 22" fill="none" xmlns="http://www.w3.org/2000/svg">
<path d="M20.6653 13.7625L17.6051 16.0226C17.3066 16.2358 16.9795 16.3978 16.6372 16.5074C16.819 15.9811 16.7881 15.417 16.5473 14.9122C16.2983 14.3904 15.8592 14.0022 15.3091 13.8189L9.20067 11.7978C7.36223 11.1849 4.88916 11.45 3.23813 12.9215H0.703125C0.314812 12.9215 0 13.2363 0 13.6246V20.6559C0 21.0442 0.314812 21.359 0.703125 21.359H3.51562C3.90394 21.359 4.21875 21.0442 4.21875 20.6559V20.1304L9.73359 21.3836C10.7393 21.6139 11.77 21.7347 12.7238 21.7347C12.7674 21.7347 12.8109 21.7345 12.8542 21.734C15.5228 21.7027 18.1003 20.8528 20.3079 19.2761L23.1173 17.1954C24.1007 16.4929 24.2935 15.1052 23.5384 14.1612C22.8387 13.2866 21.5767 13.1115 20.6653 13.7625ZM2.8125 19.9527H1.40625V14.3277H2.8125V19.9527ZM22.2999 16.0511L19.4905 18.1318C17.518 19.5406 15.2175 20.3 12.8377 20.3278C11.9576 20.3381 10.9924 20.2292 10.0463 20.0126L4.21875 18.6884V13.9315C5.73375 12.6165 7.82527 12.8216 8.75742 13.1324L14.8659 15.1534C15.0487 15.2144 15.1951 15.3438 15.2781 15.5177C15.3611 15.6917 15.3695 15.8868 15.3018 16.0673C15.1684 16.423 14.7815 16.6076 14.4212 16.4874C14.4205 16.4872 14.4198 16.4871 14.4191 16.4868L10.111 15.0663C9.74217 14.9447 9.34467 15.1451 9.22303 15.5139C9.10144 15.8827 9.30183 16.2802 9.67059 16.4018L14.0052 17.8311C15.4941 18.3274 17.1454 18.0791 18.4224 17.1669L21.4826 14.9068C21.7864 14.6898 22.207 14.7482 22.4403 15.0397C22.6915 15.3538 22.6297 15.8155 22.2999 16.0511Z" fill="white"/>
<path d="M19.0274 6.2604C18.6521 6.0601 18.219 5.97976 17.8001 5.90204C17.4865 5.84382 17.162 5.78368 16.9786 5.68576C16.885 5.63579 16.885 5.62285 16.885 5.53866C16.885 5.48884 16.9661 5.3979 17.1212 5.32037C17.5051 5.12846 18.0465 5.14416 18.3281 5.35543C18.6389 5.58845 19.0795 5.52545 19.3125 5.2148C19.5455 4.90416 19.4826 4.46345 19.1719 4.23043C18.9407 4.05699 18.6678 3.93306 18.375 3.85932V3.68715C18.375 3.29884 18.0602 2.98402 17.6719 2.98402C17.2836 2.98402 16.9688 3.29884 16.9688 3.68715V3.88041C16.805 3.92584 16.645 3.98626 16.4923 4.06262C15.8482 4.38465 15.4788 4.92268 15.4788 5.53871C15.4788 6.15404 15.7684 6.6339 16.3165 6.9264C16.6917 7.1267 17.1248 7.20704 17.5437 7.28476C17.8574 7.34298 18.1818 7.40312 18.3652 7.50104C18.4588 7.55096 18.4588 7.56395 18.4588 7.64809C18.4588 7.69627 18.3756 7.78904 18.2214 7.86615C17.8378 8.05796 17.2969 8.0423 17.0156 7.83137C16.705 7.59835 16.2643 7.6614 16.0313 7.97199C15.7983 8.28268 15.8613 8.7234 16.1719 8.95637C16.4031 9.12981 16.6761 9.25365 16.9688 9.32734V9.49965C16.9688 9.88796 17.2836 10.2028 17.6719 10.2028C18.0602 10.2028 18.375 9.88796 18.375 9.49965V9.30535C18.5384 9.25998 18.698 9.20007 18.8503 9.1239C19.4952 8.80145 19.865 8.26356 19.865 7.64804C19.865 7.03271 19.5754 6.5529 19.0274 6.2604Z" fill="white"/>
<path d="M17.6719 12.9215C21.1612 12.9215 24 10.0827 24 6.59337C24 3.10404 21.1612 0.265244 17.6719 0.265244C14.1825 0.265244 11.3438 3.10404 11.3438 6.59337C11.3438 10.0827 14.1825 12.9215 17.6719 12.9215ZM17.6719 1.67149C20.3858 1.67149 22.5938 3.87945 22.5938 6.59337C22.5938 9.30729 20.3858 11.5152 17.6719 11.5152C14.958 11.5152 12.75 9.30729 12.75 6.59337C12.75 3.87945 14.958 1.67149 17.6719 1.67149Z" fill="white"/>
</svg>
