<svg width="46" height="46" viewBox="0 0 46 46" fill="none" xmlns="http://www.w3.org/2000/svg">
<circle cx="23" cy="23" r="22.5" stroke="#E6E6E6"/>
<g clip-path="url(#clip0)">
<path d="M32.9247 12H15.0937C14.7792 11.9993 14.4909 12.2014 14.3471 12.5231C14.2014 12.8492 14.227 13.2419 14.4132 13.5397L20.9457 24.1224C20.9479 24.126 20.9502 24.1294 20.9524 24.1331C21.1898 24.5016 21.3181 24.9479 21.3189 25.4067V34.0346C21.3175 34.2903 21.4047 34.5356 21.5614 34.7169C21.718 34.8982 21.931 34.9999 22.1531 34.9999C22.2661 34.9999 22.3777 34.9739 22.482 34.9242L26.1528 33.3145C26.4818 33.1991 26.7001 32.8422 26.7001 32.4124V25.4067C26.7007 24.9481 26.8292 24.5016 27.0664 24.1331C27.0685 24.1294 27.0709 24.126 27.0731 24.1224L33.6054 13.5392C33.7916 13.2417 33.8172 12.8492 33.6715 12.5231C33.5277 12.2014 33.2394 11.9993 32.9247 12ZM26.2478 23.4415C25.8829 24.0109 25.6856 24.6993 25.6845 25.4067V32.2705L22.3341 33.7395V25.4067C22.3329 24.6993 22.1356 24.0109 21.7706 23.4415L15.4286 13.1675H32.59L26.2478 23.4415Z" fill="black"/>
</g>
<defs>
<clipPath id="clip0">
<rect width="20" height="23" fill="white" transform="translate(14 12)"/>
</clipPath>
</defs>
</svg>
