<svg width="16" height="12" viewBox="0 0 16 12" fill="none" xmlns="http://www.w3.org/2000/svg">
<path d="M0.6875 0.902527H15.3125V11.0974H0.6875V0.902527Z" fill="#D60A2E"/>
<path d="M3.12463 2.76184L3.63721 3.8005L4.78331 3.967L3.9539 4.77545L4.14979 5.91704L3.12463 5.37803L2.09934 5.91704L2.29523 4.77545L1.46582 3.967L2.61191 3.8005L3.12463 2.76184Z" fill="#FED953"/>
<path d="M6.16081 4.75537L6.3657 5.17036L6.82372 5.23687L6.49227 5.56003L6.57045 6.01607L6.16081 5.80078L5.75117 6.01607L5.82936 5.56003L5.49805 5.23687L5.95606 5.17036L6.16081 4.75537Z" fill="#FED953"/>
<path d="M5.91813 2.94098L6.29247 3.21323L6.72883 3.05924L6.58554 3.4994L6.86693 3.86685L6.40413 3.86657L6.14144 4.24767L5.99871 3.80737L5.55518 3.67546L5.92966 3.40363L5.91813 2.94098Z" fill="#FED953"/>
<path d="M5.318 1.68841L5.23053 2.14291L5.55537 2.47267L5.09609 2.52991L4.8829 2.94067L4.68659 2.52161L4.22998 2.44567L4.5679 2.12941L4.49886 1.67181L4.90414 1.89541L5.318 1.68841Z" fill="#FED953"/>
<path d="M5.318 6.34484L5.23053 6.79934L5.55537 7.12897L5.09609 7.1862L4.8829 7.59697L4.68659 7.1779L4.22998 7.10211L4.5679 6.78584L4.49886 6.32825L4.90414 6.55184L5.318 6.34484Z" fill="#FED953"/>
</svg>
