<svg width="38" height="30" viewBox="0 0 38 30" fill="none" xmlns="http://www.w3.org/2000/svg">
<path d="M36.0049 21.6663L20.1133 12.4571V11.7719C20.1133 10.9906 20.5592 10.2637 21.277 9.87513C22.8943 8.99972 23.8556 7.31354 23.7858 5.4747C23.6914 2.98904 21.6707 0.967914 19.1855 0.873582C17.8705 0.823113 16.6252 1.29782 15.6789 2.2087C14.7321 3.12026 14.2106 4.34605 14.2106 5.66017C14.2106 6.275 14.709 6.77345 15.3239 6.77345C15.9387 6.77345 16.4372 6.275 16.4372 5.66017C16.4372 4.95673 16.7163 4.30071 17.2231 3.81272C17.7294 3.3254 18.3955 3.07105 19.101 3.09851C20.4299 3.14898 21.5104 4.22983 21.5609 5.55916C21.5983 6.54456 21.0834 7.44802 20.2172 7.91701C18.7797 8.69512 17.8867 10.1722 17.8867 11.7719V12.4571L1.99507 21.6663C0.764453 22.3794 0 23.7062 0 25.1286C0 27.3351 1.79476 29.1301 4.00084 29.1301H33.9992C36.2052 29.1301 38 27.3349 38 25.1286C38 23.7061 37.2355 22.3794 36.0049 21.6663ZM33.9992 26.9035H4.00084C3.02248 26.9035 2.22656 26.1072 2.22656 25.1286C2.22656 24.4976 2.56559 23.9091 3.11147 23.5928L19 14.3855L34.8885 23.5928C35.4343 23.9091 35.7734 24.4976 35.7734 25.1286C35.7734 26.1073 34.9775 26.9035 33.9992 26.9035Z" fill="black" fill-opacity="0.3"/>
</svg>
