<svg width="19" height="19" viewBox="0 0 19 19" fill="none" xmlns="http://www.w3.org/2000/svg">
<rect width="19" height="19" rx="9.5" fill="#E46845"/>
<path d="M9.08529 14.3784C8.94357 14.3784 8.80695 14.3248 8.70047 14.2275C8.29834 13.8605 7.91064 13.5156 7.56859 13.2114L7.56684 13.2098C6.56399 12.3178 5.69799 11.5475 5.09544 10.7887C4.42188 9.94041 4.10815 9.13611 4.10815 8.25746C4.10815 7.40377 4.38862 6.6162 4.89783 6.0397C5.41312 5.45639 6.12017 5.13513 6.88896 5.13513C7.46356 5.13513 7.98978 5.32473 8.45297 5.69863C8.68673 5.88736 8.89861 6.11833 9.08529 6.38776C9.27203 6.11833 9.48385 5.88736 9.71768 5.69863C10.1809 5.32473 10.7071 5.13513 11.2817 5.13513C12.0504 5.13513 12.7575 5.45639 13.2728 6.0397C13.782 6.6162 14.0624 7.40377 14.0624 8.25746C14.0624 9.13611 13.7488 9.94041 13.0752 10.7886C12.4727 11.5475 11.6067 12.3177 10.604 13.2096C10.2614 13.5143 9.87306 13.8597 9.47002 14.2276C9.36362 14.3248 9.22692 14.3784 9.08529 14.3784ZM6.88896 5.74373C6.28497 5.74373 5.73011 5.99531 5.32646 6.4522C4.91682 6.91598 4.69118 7.55707 4.69118 8.25746C4.69118 8.99644 4.95433 9.65735 5.54435 10.4004C6.11462 11.1186 6.96285 11.873 7.94497 12.7466L7.94679 12.7482C8.29014 13.0536 8.67936 13.3998 9.08445 13.7695C9.49197 13.3991 9.8818 13.0524 10.2258 12.7465C11.2079 11.8729 12.056 11.1186 12.6263 10.4004C13.2162 9.65735 13.4794 8.99644 13.4794 8.25746C13.4794 7.55707 13.2538 6.91598 12.8441 6.4522C12.4405 5.99531 11.8856 5.74373 11.2817 5.74373C10.8392 5.74373 10.433 5.89053 10.0743 6.18C9.75466 6.43809 9.53199 6.76434 9.40144 6.99263C9.33431 7.11002 9.21614 7.18009 9.08529 7.18009C8.95443 7.18009 8.83626 7.11002 8.76913 6.99263C8.63865 6.76434 8.41598 6.43809 8.09625 6.18C7.73757 5.89053 7.33134 5.74373 6.88896 5.74373Z" fill="white"/>
</svg>
