<svg width="33" height="33" viewBox="0 0 33 33" fill="none" xmlns="http://www.w3.org/2000/svg">
<circle cx="16.5" cy="16.5" r="16.5" fill="white" fill-opacity="0.1"/>
<g clip-path="url(#clip0)">
<path d="M26.475 14.093C26.4744 14.0925 26.4739 14.0919 26.4734 14.0914L17.9071 5.52535C17.5419 5.16006 17.0565 4.95898 16.5401 4.95898C16.0237 4.95898 15.5383 5.16006 15.173 5.52535L6.61109 14.0871C6.60821 14.0899 6.60516 14.093 6.60244 14.0959C5.85262 14.85 5.8539 16.0736 6.60612 16.8258C6.94979 17.1696 7.40353 17.3686 7.88883 17.3896C7.90869 17.3916 7.92856 17.3925 7.94859 17.3925H8.28985V23.6964C8.28985 24.944 9.30499 25.959 10.5526 25.959H13.904C14.2439 25.959 14.5193 25.6835 14.5193 25.3438V20.4014C14.5193 19.8321 14.9825 19.3691 15.5517 19.3691H17.5285C18.0977 19.3691 18.5608 19.8321 18.5608 20.4014V25.3438C18.5608 25.6835 18.8362 25.959 19.176 25.959H22.5274C23.7752 25.959 24.7902 24.944 24.7902 23.6964V17.3925H25.1068C25.623 17.3925 26.1085 17.1914 26.4739 16.826C27.2269 16.0726 27.2272 14.8468 26.475 14.093V14.093ZM25.6038 15.956C25.4709 16.0888 25.2944 16.162 25.1068 16.162H24.1749C23.8351 16.162 23.5597 16.4375 23.5597 16.7773V23.6964C23.5597 24.2655 23.0967 24.7286 22.5274 24.7286H19.7912V20.4014C19.7912 19.1538 18.7763 18.1386 17.5285 18.1386H15.5517C14.3039 18.1386 13.2888 19.1538 13.2888 20.4014V24.7286H10.5526C9.98351 24.7286 9.52032 24.2655 9.52032 23.6964V16.7773C9.52032 16.4375 9.24491 16.162 8.90509 16.162H7.98928C7.97967 16.1614 7.97022 16.1609 7.96044 16.1608C7.77716 16.1576 7.60524 16.0848 7.47643 15.9558C7.20245 15.6819 7.20245 15.236 7.47643 14.9619C7.47659 14.9619 7.47659 14.9617 7.47675 14.9615L7.47723 14.961L16.0433 6.39534C16.1759 6.26251 16.3523 6.18946 16.5401 6.18946C16.7277 6.18946 16.9041 6.26251 17.0369 6.39534L25.601 14.9593C25.6023 14.9606 25.6038 14.9619 25.605 14.9631C25.8776 15.2376 25.8771 15.6825 25.6038 15.956V15.956Z" fill="white"/>
</g>
<defs>
<clipPath id="clip0">
<rect width="21" height="21" fill="white" transform="translate(6 5)"/>
</clipPath>
</defs>
</svg>
