<svg width="32" height="32" viewBox="0 0 32 32" fill="none" xmlns="http://www.w3.org/2000/svg">
<path d="M32 21.9978C32 24.6746 29.7571 26.8522 27 26.8522H22.875V29.2795H25.375C26.0654 29.2795 26.625 29.8228 26.625 30.4931C26.625 31.1634 26.0654 31.7067 25.375 31.7067H17.875C17.1846 31.7067 16.625 31.1634 16.625 30.4931C16.625 29.8228 17.1846 29.2795 17.875 29.2795H20.375V26.8522H17.875C17.1846 26.8522 16.625 26.309 16.625 25.6386C16.625 24.9683 17.1846 24.425 17.875 24.425H27C28.3784 24.425 29.5 23.3361 29.5 21.9978C29.5 21.3275 30.0596 20.7842 30.75 20.7842C31.4404 20.7842 32 21.3275 32 21.9978ZM27 6.22086H17.875C17.1846 6.22086 16.625 6.76414 16.625 7.43447C16.625 8.1048 17.1846 8.64808 17.875 8.64808H27C28.3784 8.64808 29.5 9.73701 29.5 11.0753V15.9297C29.5 16.6001 30.0596 17.1434 30.75 17.1434C31.4404 17.1434 32 16.6001 32 15.9297V11.0753C32 8.39848 29.7571 6.22086 27 6.22086ZM14.125 4.27908V28.0659C14.125 30.0735 12.4429 31.7067 10.375 31.7067H3.75C1.68213 31.7067 0 30.0735 0 28.0659V4.27908C0 2.27141 1.68213 0.638245 3.75 0.638245H10.375C12.4429 0.638245 14.125 2.27141 14.125 4.27908ZM11.625 4.27908C11.625 3.60993 11.0642 3.06547 10.375 3.06547H3.75C3.06079 3.06547 2.5 3.60993 2.5 4.27908V28.0659C2.5 28.735 3.06079 29.2795 3.75 29.2795H10.375C11.0642 29.2795 11.625 28.735 11.625 28.0659V4.27908ZM8.5 16.5366H5.625C4.93457 16.5366 4.375 17.0798 4.375 17.7502C4.375 18.4205 4.93457 18.9638 5.625 18.9638H8.5C9.19043 18.9638 9.75 18.4205 9.75 17.7502C9.75 17.0798 9.19043 16.5366 8.5 16.5366ZM8.5 5.49269H5.625C4.93457 5.49269 4.375 6.03597 4.375 6.7063C4.375 7.37663 4.93457 7.91991 5.625 7.91991H8.5C9.19043 7.91991 9.75 7.37663 9.75 6.7063C9.75 6.03597 9.19043 5.49269 8.5 5.49269ZM8.5 20.7842H5.625C4.93457 20.7842 4.375 21.3275 4.375 21.9978C4.375 22.6681 4.93457 23.2114 5.625 23.2114H8.5C9.19043 23.2114 9.75 22.6681 9.75 21.9978C9.75 21.3275 9.19043 20.7842 8.5 20.7842ZM7.1875 25.0318C6.49707 25.0318 5.9375 25.5751 5.9375 26.2454C5.9375 26.9158 6.49707 27.4591 7.1875 27.4591C7.87793 27.4591 8.4375 26.9158 8.4375 26.2454C8.4375 25.5751 7.87793 25.0318 7.1875 25.0318Z" fill="#B3B3B3"/>
</svg>
