<svg width="10" height="10" viewBox="0 0 10 10" fill="none" xmlns="http://www.w3.org/2000/svg">
<path d="M9.71408 1.36709C9.56697 1.21973 9.32828 1.21947 9.18117 1.36646L4.65982 5.87588L3.02853 4.10414C2.88758 3.95113 2.64926 3.94121 2.496 4.08215C2.34285 4.22311 2.33305 4.46154 2.474 4.61469L4.371 6.67486C4.44047 6.75037 4.53769 6.79422 4.64021 6.79635C4.64297 6.79647 4.64562 6.79647 4.64826 6.79647C4.74789 6.79647 4.84373 6.7569 4.91434 6.68654L9.71334 1.90012C9.86082 1.75314 9.86107 1.51445 9.71408 1.36709Z" fill="#008000"/>
<path d="M9.62311 4.62311C9.41494 4.62311 9.24623 4.79182 9.24623 5C9.24623 7.34146 7.34146 9.24623 5 9.24623C2.65867 9.24623 0.75377 7.34146 0.75377 5C0.75377 2.65867 2.65867 0.75377 5 0.75377C5.20816 0.75377 5.37689 0.585059 5.37689 0.376895C5.37689 0.168711 5.20816 0 5 0C2.24297 0 0 2.24297 0 5C0 7.75691 2.24297 10 5 10C7.75691 10 10 7.75691 10 5C10 4.79184 9.83129 4.62311 9.62311 4.62311Z" fill="#008000"/>
</svg>
