<svg width="33" height="33" viewBox="0 0 33 33" fill="none" xmlns="http://www.w3.org/2000/svg">
<circle cx="16.5" cy="16.5" r="16.5" fill="white" fill-opacity="0.1"/>
<path d="M21.8044 18.5652C22.0324 18.5652 22.2174 18.7503 22.2174 18.9783V23.9348C22.2174 25.0731 21.2914 26 20.1522 26H11.0652C9.92606 26 9 25.0731 9 23.9348V9.06524C9 7.92691 9.92606 7.00004 11.0652 7.00004H20.1522C21.2914 7.00004 22.2174 7.92691 22.2174 9.06524V14.0218C22.2174 14.2498 22.0323 14.4348 21.8043 14.4348C21.5763 14.4348 21.3913 14.2498 21.3913 14.0218V9.06524C21.3913 8.38205 20.8354 7.82611 20.1522 7.82611H11.0652C10.382 7.82611 9.82607 8.38205 9.82607 9.06524V23.9348C9.82607 24.618 10.382 25.1739 11.0652 25.1739H20.1522C20.8354 25.1739 21.3913 24.618 21.3913 23.9348V18.9783C21.3913 18.7503 21.5764 18.5652 21.8044 18.5652Z" fill="white"/>
<path d="M27.5865 16.913H14.3691C14.1411 16.913 13.9561 16.728 13.9561 16.5C13.9561 16.272 14.1411 16.087 14.3691 16.087H27.5865C27.8145 16.087 27.9995 16.272 27.9995 16.5C27.9995 16.728 27.8145 16.913 27.5865 16.913Z" fill="white"/>
<path d="M27.8785 16.7908L25.4002 19.2691C25.2391 19.4302 24.9772 19.4302 24.8161 19.2691C24.655 19.108 24.655 18.8461 24.8161 18.685L27.002 16.4992L24.8161 14.3134C24.655 14.1523 24.655 13.8904 24.8161 13.7293C24.8971 13.6492 25.0028 13.6087 25.1086 13.6087C25.2143 13.6087 25.32 13.6492 25.4002 13.7285L27.8785 16.2067C28.0395 16.3678 28.0395 16.6297 27.8785 16.7908Z" fill="white"/>
</svg>
