<svg width="33" height="31" viewBox="0 0 33 31" fill="none" xmlns="http://www.w3.org/2000/svg">
<path d="M28.6533 11.3198H13.3135C13.0465 11.3198 12.8301 11.5363 12.8301 11.8032C12.8301 12.0702 13.0465 12.2866 13.3135 12.2866H28.6533C28.9203 12.2866 29.1367 12.0702 29.1367 11.8032C29.1367 11.5363 28.9203 11.3198 28.6533 11.3198Z" fill="#E46845"/>
<path d="M28.6533 15.0151H13.3135C13.0465 15.0151 12.8301 15.2315 12.8301 15.4985C12.8301 15.7655 13.0465 15.9819 13.3135 15.9819H28.6533C28.9203 15.9819 29.1367 15.7655 29.1367 15.4985C29.1367 15.2315 28.9203 15.0151 28.6533 15.0151Z" fill="#E46845"/>
<path d="M28.6533 18.7104H13.3135C13.0465 18.7104 12.8301 18.9268 12.8301 19.1938C12.8301 19.4608 13.0465 19.6772 13.3135 19.6772H28.6533C28.9203 19.6772 29.1367 19.4608 29.1367 19.1938C29.1367 18.9268 28.9203 18.7104 28.6533 18.7104Z" fill="#E46845"/>
<path d="M30.1882 7.09222H11.7774C10.2271 7.09222 8.96582 8.35344 8.96582 9.9038V21.4807C8.96582 23.031 10.227 24.2923 11.7774 24.2923H24.6816C24.8196 24.2923 24.9478 24.3543 25.0334 24.4627L29.2006 29.7383C29.3648 29.9463 29.6045 30.0596 29.8554 30.0596C29.9487 30.0596 30.0435 30.0439 30.1366 30.0116C30.4799 29.8923 30.7018 29.5804 30.7018 29.217V24.2442C32.0054 24.0007 32.9997 22.8482 32.9997 21.4807V9.90373C32.9997 8.35344 31.7385 7.09222 30.1882 7.09222ZM32.0329 21.4807C32.0329 22.4847 31.2161 23.3119 30.2121 23.3247C29.9476 23.3281 29.7349 23.5435 29.7349 23.8081V28.8551L25.7921 23.8634C25.5221 23.5215 25.1173 23.3254 24.6816 23.3254H11.7774C10.7602 23.3254 9.93262 22.4978 9.93262 21.4806V9.90373C9.93262 8.88653 10.7601 8.05896 11.7774 8.05896H30.1882C31.2054 8.05896 32.0329 8.88653 32.0329 9.90373V21.4807Z" fill="#E46845"/>
<path d="M7.12168 15.0852C6.79104 15.1321 6.49494 15.3023 6.28792 15.5644L2.96723 19.7684V15.555C2.96723 15.2904 2.75453 15.075 2.49002 15.0716C1.65013 15.0609 0.966797 14.3689 0.966797 13.5289V3.45098C0.966797 2.60001 1.65915 1.90765 2.51013 1.90765H18.5372C19.3882 1.90765 20.0806 2.60001 20.0806 3.45098V5.31574C20.0806 5.58271 20.297 5.79914 20.564 5.79914C20.8309 5.79914 21.0474 5.58271 21.0474 5.31574V3.45098C21.0474 2.06692 19.9213 0.940857 18.5372 0.940857H2.51013C1.12606 0.940857 0 2.06692 0 3.45098V13.5289C0 14.7321 0.861803 15.7486 2.0005 15.9861V20.2636C2.0005 20.6071 2.2101 20.9018 2.53455 21.0145C2.62253 21.045 2.71212 21.0598 2.80029 21.0598C3.03729 21.0598 3.26384 20.9527 3.41898 20.7563L7.04666 16.1637C7.099 16.0973 7.17395 16.0543 7.25762 16.0424C7.52194 16.0048 7.70582 15.7601 7.66825 15.4958C7.63073 15.2315 7.38639 15.0475 7.12168 15.0852Z" fill="#E46845"/>
</svg>
