<svg width="33" height="33" viewBox="0 0 33 33" fill="none" xmlns="http://www.w3.org/2000/svg">
<circle cx="16.5" cy="16.5" r="16.5" fill="white" fill-opacity="0.1"/>
<path d="M15.8716 15.6707C17.0628 15.6707 18.0941 15.2434 18.9371 14.4005C19.7797 13.5577 20.2071 12.5265 20.2071 11.3352C20.2071 10.1443 19.7799 9.11294 18.9369 8.26988C18.094 7.42723 17.0627 7 15.8716 7C14.6803 7 13.6491 7.42723 12.8063 8.27002C11.9635 9.1128 11.5361 10.1441 11.5361 11.3352C11.5361 12.5265 11.9635 13.5579 12.8063 14.4007C13.6494 15.2433 14.6807 15.6707 15.8716 15.6707ZM13.5523 9.01585C14.1989 8.36917 14.9576 8.05482 15.8716 8.05482C16.7855 8.05482 17.5443 8.36917 18.1911 9.01585C18.8378 9.66267 19.1523 10.4214 19.1523 11.3352C19.1523 12.2493 18.8378 13.0079 18.1911 13.6547C17.5443 14.3015 16.7855 14.6158 15.8716 14.6158C14.9578 14.6158 14.1992 14.3014 13.5523 13.6547C12.9054 13.008 12.591 12.2493 12.591 11.3352C12.591 10.4214 12.9054 9.66267 13.5523 9.01585Z" fill="white"/>
<path d="M23.4577 20.8411C23.4333 20.4904 23.3842 20.1078 23.3118 19.7037C23.2388 19.2967 23.1447 18.9119 23.0321 18.5602C22.9156 18.1967 22.7576 17.8377 22.5619 17.4937C22.359 17.1367 22.1206 16.8257 21.8531 16.5699C21.5734 16.3022 21.2309 16.0871 20.8348 15.9301C20.4401 15.7739 20.0027 15.6948 19.5349 15.6948C19.3511 15.6948 19.1734 15.7702 18.8302 15.9937C18.619 16.1314 18.3719 16.2907 18.0962 16.4669C17.8604 16.6171 17.541 16.7579 17.1464 16.8853C16.7615 17.0099 16.3707 17.0731 15.9848 17.0731C15.5991 17.0731 15.2083 17.0099 14.8231 16.8853C14.429 16.758 14.1094 16.6173 13.874 16.467C13.6009 16.2925 13.3537 16.1332 13.1393 15.9935C12.7964 15.7701 12.6187 15.6947 12.4349 15.6947C11.9669 15.6947 11.5297 15.7739 11.1351 15.9302C10.7393 16.0869 10.3967 16.3021 10.1167 16.57C9.84917 16.826 9.61076 17.1368 9.40807 17.4937C9.21265 17.8377 9.05444 18.1966 8.93799 18.5603C8.82552 18.912 8.73145 19.2967 8.65839 19.7037C8.58588 20.1072 8.53685 20.49 8.51254 20.8415C8.48865 21.1852 8.47656 21.543 8.47656 21.9044C8.47656 22.844 8.77525 23.6047 9.36426 24.1657C9.94598 24.7193 10.7156 25 11.6517 25H20.3189C21.2548 25 22.0244 24.7193 22.6062 24.1657C23.1954 23.6051 23.494 22.8442 23.494 21.9043C23.4939 21.5416 23.4817 21.1839 23.4577 20.8411ZM21.8789 23.4015C21.4945 23.7673 20.9842 23.9451 20.3187 23.9451H11.6517C10.9861 23.9451 10.4758 23.7673 10.0916 23.4016C9.71458 23.0428 9.53139 22.5529 9.53139 21.9044C9.53139 21.5672 9.54251 21.2341 9.56476 20.9144C9.58646 20.6008 9.63081 20.2562 9.69659 19.8901C9.76155 19.5285 9.84422 19.1892 9.94255 18.882C10.0369 18.5874 10.1656 18.2957 10.3251 18.0147C10.4774 17.7469 10.6527 17.5172 10.846 17.3321C11.0269 17.1589 11.2549 17.0172 11.5235 16.9109C11.7719 16.8126 12.0511 16.7587 12.3542 16.7506C12.3911 16.7703 12.4569 16.8078 12.5635 16.8772C12.7803 17.0186 13.0303 17.1798 13.3066 17.3562C13.618 17.5548 14.0193 17.7342 14.4987 17.8889C14.9888 18.0474 15.4887 18.1279 15.9849 18.1279C16.4811 18.1279 16.9811 18.0474 17.4709 17.8891C17.9508 17.734 18.3519 17.5548 18.6638 17.356C18.9465 17.1752 19.1895 17.0187 19.4063 16.8772C19.5129 16.8079 19.5787 16.7703 19.6156 16.7506C19.9188 16.7587 20.198 16.8126 20.4466 16.9109C20.7151 17.0172 20.943 17.159 21.1239 17.3321C21.3172 17.5171 21.4925 17.7468 21.6448 18.0149C21.8045 18.2957 21.9333 18.5875 22.0275 18.8818C22.126 19.1894 22.2088 19.5286 22.2736 19.89C22.3392 20.2568 22.3837 20.6015 22.4054 20.9146V20.9148C22.4278 21.2333 22.4391 21.5662 22.4392 21.9044C22.4391 22.553 22.2559 23.0428 21.8789 23.4015Z" fill="white"/>
</svg>
