<svg width="33" height="33" viewBox="0 0 33 33" fill="none" xmlns="http://www.w3.org/2000/svg">
<circle cx="16.5" cy="16.5" r="16.5" fill="white" fill-opacity="0.1"/>
<path d="M5.54424 9.47263H8.06453C8.67551 9.47263 9.19253 9.93924 9.29386 10.5753L11.4055 23.8452C11.464 24.2867 11.8379 24.6183 12.2832 24.6235H12.8278C12.9961 25.3878 13.6754 26.0002 14.4857 26.0002C15.2961 26.0002 15.9754 25.3878 16.1435 24.6235H20.4553C20.6235 25.3878 21.3028 25.997 22.1131 25.997C23.0495 25.997 23.8113 25.2078 23.8113 24.2396C23.8113 23.2715 23.0495 22.4863 22.1131 22.4863C21.2893 22.4863 20.6007 23.0953 20.4472 23.9046H16.1517C15.9981 23.0953 15.3097 22.4884 14.4857 22.4884C13.6618 22.4884 12.9734 23.095 12.8197 23.9042H12.2931C12.2028 23.9016 12.1282 23.8334 12.1173 23.7439C12.1169 23.7416 12.1166 23.7476 12.1162 23.7455L11.7323 21.3416H22.4582C23.2848 21.3405 24.0005 20.767 24.1817 19.9604L25.8086 12.894C25.8332 12.7851 25.8079 12.6708 25.7396 12.5825C25.672 12.4948 25.5686 12.4425 25.4581 12.4399H10.3198L10.0042 10.4577C9.84706 9.47034 9.03131 8.7533 8.06453 8.7533H5.54424C5.34561 8.7533 5.18457 8.91434 5.18457 9.11296C5.18457 9.31159 5.34561 9.47263 5.54424 9.47263ZM22.1131 23.2016C22.653 23.2016 23.092 23.6666 23.092 24.2381C23.092 24.8097 22.653 25.2747 22.1131 25.2747C21.5734 25.2747 21.1344 24.8097 21.1344 24.2381C21.1344 23.6664 21.5734 23.2016 22.1131 23.2016ZM14.4857 23.2016C15.0255 23.2016 15.4646 23.6666 15.4646 24.2381C15.4646 24.8097 15.0255 25.2747 14.4857 25.2747C13.946 25.2747 13.5068 24.8097 13.5068 24.2381C13.5068 23.6664 13.946 23.2016 14.4857 23.2016ZM25.0061 13.1592L23.4806 19.7944C23.374 20.2747 22.9501 20.6179 22.4582 20.6223H11.6178L10.4343 13.1592H25.0061Z" fill="white"/>
<path d="M17.5029 10.4566C17.6429 10.5943 17.8675 10.5943 18.0074 10.4566L19.304 9.18025C19.4456 9.04081 19.4475 8.81321 19.3081 8.67166C19.1676 8.53011 18.9391 8.52818 18.7963 8.66762L18.1082 9.34147V6.54967C18.1082 6.35104 17.9472 6.19 17.7486 6.19C17.55 6.19 17.3889 6.35104 17.3889 6.54967V9.34147L16.7075 8.66762C16.6164 8.5756 16.4829 8.53995 16.358 8.57402C16.2332 8.60826 16.1362 8.70696 16.1046 8.83253C16.073 8.9581 16.1115 9.09086 16.2054 9.18008L17.5029 10.4566Z" fill="white"/>
<path d="M17.7555 11.7497C19.6194 11.7497 21.1304 10.2387 21.1304 8.37485C21.1304 6.51102 19.6195 5 17.7557 5C15.8917 5 14.3809 6.51102 14.3809 8.37485C14.3828 10.2378 15.8926 11.7476 17.7555 11.7497ZM17.7555 5.71933C19.2221 5.71933 20.4111 6.90827 20.4111 8.37485C20.4111 9.84144 19.2223 11.0304 17.7555 11.0304C16.289 11.0304 15.1 9.84144 15.1002 8.37485C15.1018 6.90897 16.2897 5.72109 17.7555 5.71933Z" fill="white"/>
</svg>
