<svg width="31" height="28" viewBox="0 0 31 28" fill="none" xmlns="http://www.w3.org/2000/svg">
<path d="M30.9308 19.9715C30.7158 19.1879 30.0587 18.6047 29.255 18.4842V6.70431H30.2815C30.5649 6.70431 30.7947 6.4745 30.7947 6.19107V1.05861C30.7947 0.774922 30.5649 0.545364 30.2815 0.545364H7.69868C7.41525 0.545364 7.18544 0.774922 7.18544 1.05861V6.19107C7.18544 6.4745 7.41525 6.70431 7.69868 6.70431H8.72518V16.9692H8.21193C6.93809 16.9662 5.69031 17.3314 4.61921 18.0208V15.4295C4.61921 15.1458 4.3894 14.9162 4.10597 14.9162H0.513246C0.229808 14.9162 0 15.1458 0 15.4295V27.2341C0 27.5176 0.229808 27.7474 0.513246 27.7474H4.10597C4.3894 27.7474 4.61921 27.5176 4.61921 27.2341V24.6431C5.69056 25.332 6.93809 25.6972 8.21193 25.6944H16.6394C17.2233 25.6934 17.8045 25.6167 18.3686 25.4664L29.4808 22.4896C30.5742 22.1917 31.222 21.0669 30.9308 19.9715ZM8.21193 1.57186H29.7682V5.67782H8.21193V1.57186ZM9.75167 6.70431H28.2285V18.5724L22.2718 20.1697C22.0265 19.5848 21.526 19.1455 20.9143 18.9779L13.9987 17.1231C13.6093 17.0206 13.2083 16.9687 12.8056 16.9692H9.75167V6.70431ZM3.59272 26.7209H1.02649V15.9427H3.59272V26.7209ZM29.2144 21.498L18.1042 24.4747C17.6263 24.6023 17.1341 24.6672 16.6394 24.6679H8.21193C6.98996 24.6707 5.80033 24.2742 4.82446 23.5387L4.61921 23.3848V19.2788L4.82446 19.1247C5.80033 18.3892 6.98996 17.9925 8.21193 17.9957H12.8056C13.1191 17.9955 13.4316 18.0361 13.7351 18.1163L20.6484 19.9695C21.0569 20.082 21.3558 20.4321 21.4024 20.8534C21.408 20.8745 21.4147 20.8953 21.423 20.9156C21.417 20.9376 21.4125 20.9599 21.4095 20.9827C21.41 21.0662 21.3987 21.1494 21.3756 21.2296C21.2548 21.6769 20.8496 21.9879 20.3862 21.9887C20.2958 21.9894 20.206 21.9779 20.1188 21.9548L15.7562 20.785C15.5773 20.7319 15.3836 20.78 15.2503 20.9108C15.1172 21.0416 15.0653 21.2343 15.1152 21.4143C15.1651 21.594 15.3087 21.7328 15.4903 21.7761L19.8529 22.9465C20.0271 22.9923 20.2068 23.0154 20.3872 23.0152C21.31 23.0147 22.1187 22.3974 22.3625 21.5072C22.3911 21.4042 22.4104 21.299 22.4207 21.1927L28.6776 19.5149C28.7222 19.5036 28.7706 19.4921 28.8162 19.4846C29.3272 19.4187 29.8076 19.7417 29.9397 20.2394C29.9627 20.3261 29.9742 20.4156 29.9735 20.5053C29.9742 20.9699 29.663 21.3769 29.2144 21.498Z" fill="#DB3022"/>
<path d="M16.4239 8.75734H21.5563C21.8398 8.75734 22.0696 8.52754 22.0696 8.2441C22.0696 7.96041 21.8398 7.73085 21.5563 7.73085H16.4239C16.1405 7.73085 15.9106 7.96041 15.9106 8.2441C15.9106 8.52754 16.1405 8.75734 16.4239 8.75734Z" fill="#DB3022"/>
</svg>
