<svg width="28" height="28" viewBox="0 0 28 28" fill="none" xmlns="http://www.w3.org/2000/svg">
<path d="M28 5.36644L21.56 0L19.754 2.12711L26.194 7.49355L28 5.36644ZM8.232 2.12711L6.44 0L0 5.35253L1.806 7.47964L8.232 2.12711ZM14.7 8.53625H12.6V16.8779L19.25 20.8401L20.3 19.1301L14.7 15.8352V8.53625ZM14 2.97517C7.042 2.97517 1.4 8.57796 1.4 15.4876C1.4 22.3972 7.028 28 14 28C20.958 28 26.6 22.3972 26.6 15.4876C26.6 8.57796 20.958 2.97517 14 2.97517ZM14 25.2195C8.582 25.2195 4.2 20.8679 4.2 15.4876C4.2 10.1073 8.582 5.75571 14 5.75571C19.418 5.75571 23.8 10.1073 23.8 15.4876C23.8 20.8679 19.418 25.2195 14 25.2195Z" fill="white"/>
</svg>
