<svg width="22" height="24" viewBox="0 0 22 24" fill="none" xmlns="http://www.w3.org/2000/svg">
<path d="M5.46273 17.2266L6.1728 16.5675H19.6596L21.3926 5.32017H19.3122V2.75836H17.8022C17.1644 1.11422 15.5673 0 13.7731 0C12.4994 0 11.3528 0.553969 10.5612 1.43348L10.5055 0.864188H7.09834L6.66203 5.32022H5.62891L5.1393 0.0209063H0.607422V1.42748H3.85666L5.16452 15.5842L4.50583 16.1956C3.71927 16.9256 3.46441 18.0428 3.85656 19.0418C4.24872 20.0408 5.1955 20.6862 6.2687 20.6862H7.10781C6.97806 20.9783 6.90536 21.301 6.90536 21.6406C6.90536 22.9416 7.9638 24 9.26472 24C10.5657 24 11.6241 22.9416 11.6241 21.6406C11.6241 21.301 11.5514 20.9783 11.4217 20.6862H12.7823C12.6525 20.9783 12.5798 21.301 12.5798 21.6406C12.5798 22.9416 13.6383 24 14.9392 24C16.2401 24 17.2985 22.9416 17.2985 21.6406C17.2985 21.301 17.2258 20.9783 17.0961 20.6862H19.1133V19.2796H6.26866C5.76292 19.2796 5.35066 18.9986 5.16583 18.5278C4.98109 18.0571 5.09205 17.5706 5.46273 17.2266ZM9.26477 22.5934C8.73939 22.5934 8.31199 22.1661 8.31199 21.6407C8.31199 21.1153 8.73939 20.6879 9.26477 20.6879C9.79014 20.6879 10.2175 21.1153 10.2175 21.6407C10.2175 22.166 9.79014 22.5934 9.26477 22.5934ZM14.9392 22.5934C14.4138 22.5934 13.9864 22.1661 13.9864 21.6407C13.9864 21.1153 14.4138 20.6879 14.9392 20.6879C15.4646 20.6879 15.892 21.1153 15.892 21.6407C15.892 22.166 15.4645 22.5934 14.9392 22.5934ZM6.538 15.161L6.00869 9.43134H19.336L18.4532 15.161H6.538ZM17.9057 4.16494V5.30719H15.4309V4.16494H17.9057ZM10.858 4.32169C10.858 2.71425 12.1657 1.40658 13.7731 1.40658C14.7878 1.40658 15.7089 1.93463 16.2338 2.75836H14.0243V5.32022H10.9417L10.858 4.32169ZM8.37391 2.27077H9.22984L9.52844 5.32017H8.07536L8.37391 2.27077ZM19.7527 6.7268L19.5528 8.02472H5.87875L5.75884 6.7268H19.7527Z" fill="white"/>
</svg>
