<svg width="27" height="26" viewBox="0 0 27 26" fill="none" xmlns="http://www.w3.org/2000/svg">
<path d="M26.2511 23.2231L26.2536 23.2465L26.2583 23.2695C26.285 23.4016 26.3002 23.5306 26.3002 23.6596C26.3002 24.68 25.5153 25.468 24.5922 25.468H13.5522H2.5122C1.58913 25.468 0.804199 24.68 0.804199 23.6596C0.804199 23.5306 0.819386 23.4016 0.846143 23.2695L0.850804 23.2465L0.853287 23.2231L3.0094 2.93721L3.0122 2.91086V2.88437C3.0122 1.86396 3.79713 1.076 4.7202 1.076H13.5522H22.3842C23.3073 1.076 24.0922 1.86396 24.0922 2.88437V2.91086L24.095 2.93721L26.2511 23.2231ZM19.5722 7.50109V6.55606C20.2341 6.17333 20.6762 5.44587 20.6762 4.61564C20.6762 3.40501 19.7312 2.38437 18.5202 2.38437C17.3092 2.38437 16.3642 3.40501 16.3642 4.61564V7.50109C16.3642 9.15515 15.0814 10.4636 13.5522 10.4636C12.023 10.4636 10.7402 9.15515 10.7402 7.50109V4.61564C10.7402 3.40501 9.79517 2.38437 8.5842 2.38437C7.37323 2.38437 6.4282 3.40501 6.4282 4.61564C6.4282 5.44587 6.8703 6.17333 7.5322 6.55606V7.50109C7.5322 10.9381 10.2116 13.772 13.5522 13.772C16.8928 13.772 19.5722 10.9381 19.5722 7.50109Z" stroke="#DB3022"/>
</svg>
