<svg width="33" height="33" viewBox="0 0 33 33" fill="none" xmlns="http://www.w3.org/2000/svg">
<circle cx="16.5" cy="16.5" r="16.5" fill="white" fill-opacity="0.1"/>
<path d="M9.33333 15.4884H13.6667C13.851 15.4884 14 15.3391 14 15.1551C14 14.9711 13.851 14.8218 13.6667 14.8218H9.33333C9.149 14.8218 9 14.9711 9 15.1551C9 15.3391 9.149 15.4884 9.33333 15.4884Z" fill="white"/>
<path d="M18 16.8218H9.33333C9.149 16.8218 9 16.9711 9 17.1551C9 17.3391 9.149 17.4884 9.33333 17.4884H18C18.1843 17.4884 18.3333 17.3391 18.3333 17.1551C18.3333 16.9711 18.1843 16.8218 18 16.8218Z" fill="white"/>
<path d="M18 18.8218H9.33333C9.149 18.8218 9 18.9711 9 19.1551C9 19.3391 9.149 19.4884 9.33333 19.4884H18C18.1843 19.4884 18.3333 19.3391 18.3333 19.1551C18.3333 18.9711 18.1843 18.8218 18 18.8218Z" fill="white"/>
<path d="M24.024 7.84511L12.6433 7.82178C11.5533 7.82178 10.6667 8.70844 10.6667 9.79844V11.5064L7.97667 11.5121C6.88667 11.5121 6 12.3988 6 13.4888V20.5358C6 21.6258 6.88667 22.5121 7.97667 22.5121H10V25.8454C10 25.9831 10.0847 26.1068 10.2133 26.1564C10.2523 26.1714 10.293 26.1788 10.3333 26.1788C10.4253 26.1788 10.5157 26.1404 10.58 26.0698L13.8147 22.5114L19.3567 22.4888C20.4467 22.4888 21.3333 21.6021 21.3333 20.5124V20.4748L23.0867 22.4034C23.151 22.4741 23.2413 22.5124 23.3333 22.5124C23.3737 22.5124 23.4143 22.5051 23.4533 22.4901C23.582 22.4404 23.6667 22.3168 23.6667 22.1791V18.8458H24.0233C25.1133 18.8458 26 17.9591 26 16.8694V9.82178C26 8.73211 25.1137 7.84544 24.024 7.84511ZM20.6667 20.5121C20.6667 21.2344 20.079 21.8218 19.3553 21.8218L13.6653 21.8451C13.572 21.8454 13.4827 21.8851 13.42 21.9541L10.6667 24.9831V22.1784C10.6667 21.9944 10.5177 21.8451 10.3333 21.8451H7.97667C7.25433 21.8451 6.66667 21.2574 6.66667 20.5354V13.4884C6.66667 12.7661 7.25433 12.1784 7.97733 12.1784L11 12.1721C11.0003 12.1721 11.0003 12.1721 11.0007 12.1721L19.3567 12.1548C20.079 12.1548 20.6667 12.7424 20.6667 13.4648V19.6118V20.5121ZM25.3333 16.8688C25.3333 17.5911 24.7457 18.1784 24.0233 18.1784H23.3333C23.149 18.1784 23 18.3278 23 18.5118V21.3164L21.3333 19.4831V13.4651C21.3333 12.3751 20.4467 11.4884 19.356 11.4884L11.3333 11.5048V9.79811C11.3333 9.07578 11.921 8.48811 12.6427 8.48811L24.023 8.51144C24.0233 8.51144 24.0233 8.51144 24.0237 8.51144C24.746 8.51144 25.3337 9.09911 25.3337 9.82144V16.8688H25.3333Z" fill="white"/>
</svg>
