<svg width="16" height="16" viewBox="0 0 16 16" fill="none" xmlns="http://www.w3.org/2000/svg">
<path d="M6.75863 0.480103C3.03191 0.480103 0 3.23384 0 6.61863C0 10.0034 3.03191 12.7572 6.75863 12.7572C10.4853 12.7572 13.5173 10.0034 13.5173 6.61863C13.5173 3.23384 10.4853 0.480103 6.75863 0.480103ZM6.75863 11.6834C3.68375 11.6834 1.18228 9.41139 1.18228 6.61863C1.18228 3.82587 3.68375 1.55391 6.75863 1.55391C9.83332 1.55391 12.335 3.82587 12.335 6.61863C12.335 9.41139 9.83351 11.6834 6.75863 11.6834Z" fill="#E46845"/>
<path d="M15.8268 14.0956L11.5312 10.1942C11.3002 9.98443 10.9262 9.98443 10.6953 10.1942C10.4644 10.4038 10.4644 10.7438 10.6953 10.9534L14.9909 14.8548C15.1064 14.9597 15.2575 15.0121 15.4088 15.0121C15.5602 15.0121 15.7113 14.9597 15.8268 14.8548C16.0577 14.6452 16.0577 14.3052 15.8268 14.0956Z" fill="#E46845"/>
</svg>
