<svg width="16" height="16" viewBox="0 0 16 16" fill="none" xmlns="http://www.w3.org/2000/svg">
<path d="M6.75864 0C3.03191 0 0 3.03191 0 6.75863C0 10.4854 3.03191 13.5173 6.75864 13.5173C10.4854 13.5173 13.5173 10.4854 13.5173 6.75863C13.5173 3.03191 10.4853 0 6.75864 0ZM6.75864 12.335C3.68376 12.335 1.18228 9.83351 1.18228 6.75863C1.18228 3.68375 3.68376 1.18228 6.75864 1.18228C9.83333 1.18228 12.335 3.68375 12.335 6.75863C12.335 9.83351 9.83352 12.335 6.75864 12.335Z" fill="#010035"/>
<path d="M15.8269 14.9909L11.5313 10.6954C11.3004 10.4644 10.9264 10.4644 10.6954 10.6954C10.4645 10.9261 10.4645 11.3005 10.6954 11.5312L14.991 15.8268C15.1065 15.9423 15.2576 16 15.4089 16C15.5603 16 15.7114 15.9423 15.8269 15.8268C16.0578 15.596 16.0578 15.2217 15.8269 14.9909Z" fill="#010035"/>
</svg>
