<svg width="13" height="12" viewBox="0 0 13 12" fill="none" xmlns="http://www.w3.org/2000/svg">
<path d="M6.5 11.8182C6.31493 11.8182 6.1365 11.7497 5.99744 11.6252C5.47227 11.156 4.96595 10.715 4.51923 10.3261L4.51695 10.324C3.20725 9.18359 2.07628 8.1987 1.28937 7.22852C0.409721 6.14391 0 5.11555 0 3.99213C0 2.90063 0.36628 1.89365 1.0313 1.15656C1.70425 0.410756 2.62763 0 3.63165 0C4.38206 0 5.0693 0.24242 5.67421 0.72047C5.97949 0.961775 6.25621 1.2571 6.5 1.60157C6.74389 1.2571 7.02051 0.961775 7.32589 0.72047C7.9308 0.24242 8.61803 0 9.36845 0C10.3724 0 11.2959 0.410756 11.9688 1.15656C12.6338 1.89365 13 2.90063 13 3.99213C13 5.11555 12.5904 6.14391 11.7107 7.22842C10.9238 8.1987 9.79295 9.18349 8.48344 10.3238C8.03593 10.7134 7.52882 11.1551 7.00246 11.6254C6.8635 11.7497 6.68497 11.8182 6.5 11.8182ZM3.63165 0.778136C2.84286 0.778136 2.11823 1.09981 1.59108 1.68397C1.05609 2.27695 0.761421 3.09663 0.761421 3.99213C0.761421 4.93698 1.10509 5.782 1.87563 6.73202C2.62039 7.65032 3.72816 8.61493 5.01078 9.73187L5.01316 9.7339C5.46156 10.1244 5.96987 10.5671 6.49891 11.0397C7.03112 10.5662 7.54022 10.1228 7.98952 9.73167C9.27204 8.61473 10.3797 7.65032 11.1245 6.73202C11.8949 5.782 12.2386 4.93698 12.2386 3.99213C12.2386 3.09663 11.9439 2.27695 11.4089 1.68397C10.8819 1.09981 10.1571 0.778136 9.36845 0.778136C8.79061 0.778136 8.26009 0.965829 7.79165 1.33595C7.37419 1.66593 7.08339 2.08307 6.91289 2.37495C6.82522 2.52504 6.67089 2.61463 6.5 2.61463C6.32911 2.61463 6.17478 2.52504 6.0871 2.37495C5.91671 2.08307 5.62591 1.66593 5.20835 1.33595C4.73991 0.965829 4.20939 0.778136 3.63165 0.778136Z" fill="#E46845"/>
<path d="M7.68182 1.18182L6.5 2.36364L5.31818 1.18182L4.13636 0.590909H2.36364L1.18182 1.77273L0.590909 2.95455V4.72727C0.590909 5.2 0.984848 6.10606 1.18182 6.5L4.13636 9.45455L6.5 11.2273H7.09091L11.2273 7.09091L12.4091 5.31818V2.95455L11.8182 1.77273L10.6364 0.590909H8.86364L7.68182 1.18182Z" fill="#E46845"/>
</svg>
