<svg width="13" height="14" viewBox="0 0 13 14" fill="none" xmlns="http://www.w3.org/2000/svg">
<path d="M4.7125 13.4424C4.93012 13.5589 5.17851 13.6252 5.43405 13.6351C5.68959 13.6449 5.94379 13.598 6.1725 13.4987L8.1725 12.632C8.4211 12.5239 8.63013 12.358 8.77626 12.153C8.92239 11.9479 8.99985 11.7116 9 11.4705V7.67641L12.56 4.58866C12.8414 4.34508 12.9997 4.01462 13 3.66992V1.93645C13 1.59165 12.842 1.26096 12.5607 1.01714C12.2794 0.773327 11.8978 0.636353 11.5 0.636353H1.5C1.10218 0.636353 0.720644 0.773327 0.43934 1.01714C0.158035 1.26096 0 1.59165 0 1.93645V3.66992C0.000350104 4.01462 0.158615 4.34508 0.44 4.58866L4 7.67641V12.3373C4.00028 12.5588 4.06589 12.7767 4.19058 12.9701C4.31528 13.1635 4.49494 13.326 4.7125 13.4424ZM1.5 3.66992V1.93645H11.5V3.66992L7.5 7.13686V11.4705L5.5 12.3373V7.13686L1.5 3.66992Z" fill="#010035"/>
</svg>
