<svg width="42" height="42" viewBox="0 0 42 42" fill="none" xmlns="http://www.w3.org/2000/svg">
<g clip-path="url(#clip0)">
<path d="M34.8953 25.5307C34.669 25.1388 34.1679 25.0045 33.776 25.2307L32.8922 25.7412L31.4669 23.2726L32.3507 22.7624C32.7429 22.5362 32.8772 22.0347 32.6506 21.6428C32.4244 21.2509 31.9232 21.1167 31.5313 21.3429L30.6476 21.8534L29.2223 19.3847L30.1061 18.8746C30.4983 18.6484 30.6325 18.1469 30.4063 17.755C30.1798 17.3631 29.6786 17.2288 29.2867 17.4551L28.4029 17.9655L26.9777 15.4969L27.8614 14.9868C28.2536 14.7605 28.3879 14.2591 28.1617 13.8672C27.9351 13.4753 27.434 13.341 27.0421 13.5672L26.1583 14.0777L25.0442 12.148C24.8179 11.7561 24.3168 11.6219 23.9249 11.8481C23.533 12.0743 23.3984 12.5758 23.625 12.9677L24.7388 14.897L23.855 15.4075C23.4631 15.6337 23.3286 16.1349 23.5551 16.5268C23.707 16.7898 23.9822 16.9366 24.2655 16.9366C24.4046 16.9366 24.5456 16.9014 24.6744 16.8267L25.5585 16.3166L26.9834 18.7849L26.0997 19.2953C25.7078 19.5216 25.5732 20.0227 25.7997 20.4146C25.9513 20.6777 26.2269 20.8244 26.5101 20.8244C26.6492 20.8244 26.7902 20.7892 26.919 20.7145L27.8031 20.2044L29.2281 22.6727L28.3443 23.1832C27.9524 23.4094 27.8178 23.9105 28.0444 24.3024C28.1959 24.5655 28.4715 24.7123 28.7548 24.7123C28.8939 24.7123 29.0348 24.677 29.1637 24.6024L30.0477 24.0922L31.4727 26.5605L30.589 27.071C30.1971 27.2972 30.0625 27.7984 30.289 28.1903C30.4406 28.4533 30.7162 28.6001 30.9994 28.6001C31.1385 28.6001 31.2795 28.5648 31.4083 28.4902L32.2924 27.9801L33.4062 29.9094C33.5581 30.1725 33.8333 30.3192 34.1166 30.3192C34.2557 30.3192 34.3967 30.284 34.5258 30.2093C34.9177 29.9831 35.052 29.4819 34.8257 29.09L33.7116 27.1604L34.5953 26.6503C34.9872 26.424 35.1218 25.9225 34.8953 25.5307Z" fill="black" fill-opacity="0.3"/>
<path d="M40.7819 18.7672C40.6294 18.341 40.1606 18.1193 39.7341 18.2715C39.3082 18.424 39.0862 18.8931 39.2387 19.3193C41.0677 24.4331 40.6464 29.9516 38.0823 34.4595C37.7468 35.0494 37.1184 35.4147 36.44 35.4147C36.4359 35.4147 36.4317 35.4147 36.4275 35.4147C30.0737 35.3737 24.0473 31.747 20.7006 25.9504C17.9061 21.1102 17.3566 15.4087 19.0802 10.4436C19.0828 10.4362 19.086 10.4295 19.0885 10.4221C19.0895 10.4189 19.0901 10.4161 19.0908 10.4129C19.4298 9.44258 19.855 8.50019 20.368 7.59817C20.7035 7.00825 21.3319 6.64295 22.0103 6.64295H22.0224C27.2093 6.67628 32.1997 9.0712 35.7139 13.2134C36.0068 13.5586 36.5237 13.6012 36.8691 13.3083C37.2142 13.0154 37.2565 12.4982 36.9636 12.1531C33.1399 7.64623 27.698 5.04046 22.033 5.00393C20.7577 4.99496 19.574 5.67941 18.9434 6.78811C18.506 7.55651 18.1272 8.35183 17.8055 9.16733C16.6273 8.85651 15.4109 8.69886 14.1792 8.69886C12.7471 8.69886 11.3648 8.91291 10.0606 9.3096C10.0186 9.3189 9.97731 9.33107 9.93757 9.34709C6.9774 10.277 4.43284 12.1541 2.65955 14.6211C2.60444 14.6794 2.55765 14.7454 2.52113 14.8179C0.985925 17.0321 0.0646771 19.7019 0.00539682 22.5804C-0.00101186 22.6358 -0.00165272 22.6916 0.00315379 22.7467C0.00283335 22.7899 0.00155161 22.8329 0.00155161 22.8761C0.00155161 26.0186 1.02982 28.925 2.76658 31.2779C2.80599 31.3513 2.85662 31.4186 2.91654 31.4772C4.59017 33.6629 6.88384 35.3497 9.53319 36.2709C9.57356 36.2885 9.61522 36.3036 9.65783 36.3145C11.0783 36.7935 12.5988 37.0537 14.1792 37.0537C15.7352 37.0537 17.2608 36.7987 18.7021 36.3135C18.7453 36.3023 18.7873 36.2873 18.8283 36.2693C20.9179 35.5438 22.8267 34.3336 24.3888 32.7125C27.8248 35.45 32.0478 37.0255 36.417 37.0537H36.4397C37.7064 37.0537 38.8801 36.3715 39.5069 35.2696C42.3072 30.3461 42.7721 24.3312 40.7819 18.7672ZM14.1792 27.0395L10.2311 24.171L11.7391 19.5298H16.7122C16.9644 21.1262 17.4059 22.7079 18.0359 24.2373L14.1792 27.0395ZM8.61674 23.8349L5.30249 24.9202L1.65563 22.2705C1.76586 19.9653 2.5019 17.8213 3.69648 16.0048H8.1582L10.2349 18.8547L8.61674 23.8349ZM1.72773 24.3489L4.17457 26.1266L3.24114 28.9996C2.45095 27.5939 1.92416 26.0212 1.72773 24.3489ZM17.2694 10.7218C16.5834 13.0298 16.3344 15.4626 16.5206 17.8908H11.5606L9.49505 15.0563L10.8854 10.7775C11.9355 10.4914 13.0397 10.3376 14.1792 10.3376C15.2283 10.3376 16.2642 10.467 17.2694 10.7218ZM8.93013 11.4908L7.99606 14.3657H4.98014C6.0898 13.167 7.43018 12.1849 8.93013 11.4908ZM4.4056 30.7207L5.78058 26.4881L9.12463 25.3935L13.3595 28.4703V31.9649L9.73314 34.5995C7.62852 33.7984 5.79372 32.4469 4.4056 30.7207ZM11.731 35.1737L14.1792 33.3953L16.626 35.1731C15.8268 35.332 15.0081 35.4144 14.1792 35.4144C13.3415 35.4147 12.5232 35.3314 11.731 35.1737ZM18.6249 34.5995L14.9985 31.9649V28.4703L18.7332 25.7568C18.9062 26.0981 19.0885 26.4358 19.2811 26.7697C20.3414 28.6061 21.651 30.2416 23.1459 31.6387C21.86 32.9541 20.3148 33.9583 18.6249 34.5995Z" fill="black" fill-opacity="0.3"/>
<path d="M38.4591 16.5174C38.6754 16.5174 38.8859 16.4296 39.0391 16.2765C39.1916 16.1249 39.2784 15.9134 39.2784 15.6971C39.2784 15.4815 39.1916 15.27 39.0391 15.1174C38.8859 14.9652 38.6754 14.8774 38.4591 14.8774C38.2434 14.8774 38.0329 14.9652 37.8797 15.1174C37.7272 15.27 37.6404 15.4815 37.6404 15.6971C37.6404 15.9134 37.7272 16.1249 37.8797 16.2765C38.0329 16.4296 38.2434 16.5174 38.4591 16.5174Z" fill="black" fill-opacity="0.3"/>
</g>
<defs>
<clipPath id="clip0">
<rect width="42" height="42" fill="white"/>
</clipPath>
</defs>
</svg>
