<svg width="33" height="33" viewBox="0 0 33 33" fill="none" xmlns="http://www.w3.org/2000/svg">
<circle cx="16.5" cy="16.5" r="16.5" fill="white" fill-opacity="0.1"/>
<g clip-path="url(#clip0)">
<path d="M25.4774 11.4734C25.3599 11.356 25.1757 11.3384 25.0382 11.4317C24.0506 12.101 22.7268 11.9728 21.886 11.1266C21.0358 10.2766 20.9109 8.97912 21.5825 7.97192C21.674 7.83465 21.6559 7.65174 21.5392 7.5351L20.6225 6.61851C19.7943 5.79271 18.4536 5.79389 17.6269 6.62122L6.62638 17.662C5.80446 18.4897 5.80564 19.826 6.62925 20.6521L7.3276 21.3505C7.45421 21.4771 7.6564 21.4864 7.79383 21.372C8.77449 20.5558 10.2155 20.6217 11.1175 21.5238C12.0196 22.4258 12.0853 23.8668 11.2693 24.8473C11.1549 24.9849 11.1642 25.1871 11.2906 25.3135L12.3582 26.3811C13.1852 27.2062 14.524 27.2062 15.3512 26.3811L26.3718 15.3606C27.1983 14.5341 27.1983 13.194 26.3718 12.3677L25.4774 11.4734ZM25.8821 14.871L14.8614 25.8915C14.3051 26.4466 13.4042 26.4466 12.8479 25.8915L11.9923 25.0361C12.8383 23.7819 12.6767 22.1039 11.6069 21.0342C10.5372 19.9644 8.85935 19.8028 7.60517 20.6488L7.11882 20.1626C6.56468 19.6067 6.56383 18.7076 7.11696 18.1507L18.1192 7.10808C18.6757 6.55292 19.5764 6.55292 20.1329 7.10808L20.8576 7.83279C20.1759 9.07378 20.3954 10.6159 21.3967 11.617C22.3978 12.6181 23.9397 12.8378 25.1807 12.1562L25.8818 12.8573C26.4379 13.4133 26.4379 14.3148 25.8818 14.871H25.8821Z" fill="white"/>
<path d="M17.7701 9.30315C17.6349 9.16791 17.4156 9.16791 17.2805 9.30315L9.29381 17.2899C9.15857 17.4251 9.15857 17.6444 9.29381 17.7796L15.2082 23.694C15.3434 23.8292 15.5627 23.8292 15.6979 23.694L23.6846 15.7072C23.8199 15.572 23.8199 15.3529 23.6846 15.2177L17.7701 9.30315ZM15.4531 22.9596L10.0282 17.5347L11.2719 16.291L16.6968 21.7159L15.4531 22.9596ZM17.1866 21.2262L11.7616 15.8014L17.5253 10.0375L22.9501 15.4625L17.1866 21.2262Z" fill="white"/>
<path d="M16.4835 13.4585C16.3779 13.3797 16.2367 13.3677 16.1192 13.4275C16.0019 13.4872 15.9285 13.6086 15.9302 13.7404L15.947 15.0283L14.8953 15.7719C14.7876 15.8481 14.7327 15.9786 14.7533 16.1088C14.7738 16.239 14.8666 16.3462 14.9923 16.3852L16.2223 16.7676L16.6047 17.9976C16.6438 18.1234 16.751 18.2162 16.8811 18.2368C17.0113 18.2574 17.142 18.2023 17.218 18.0946L17.9617 17.0432L19.2497 17.0595C19.3814 17.0612 19.5027 16.988 19.5626 16.8706C19.6224 16.7531 19.6104 16.6119 19.5315 16.5063L18.7613 15.474L19.1748 14.2542C19.2172 14.1294 19.1849 13.9913 19.0918 13.8982C18.9986 13.805 18.8605 13.7727 18.7358 13.8152L17.5159 14.2288L16.4835 13.4585ZM18.2937 14.6962L18.0471 15.424C18.0104 15.5319 18.0293 15.6509 18.0974 15.7423L18.5571 16.3582L17.7886 16.3484C17.6746 16.3467 17.5671 16.4014 17.5015 16.4946L17.0578 17.1221L16.8296 16.3883C16.7958 16.2794 16.7106 16.1942 16.6017 16.1604L15.8678 15.9322L16.4954 15.4884C16.5883 15.4226 16.6429 15.3153 16.6414 15.2014L16.6316 14.4329L17.2475 14.8925C17.3389 14.9606 17.4579 14.9796 17.5658 14.9431L18.2937 14.6962Z" fill="white"/>
</g>
<defs>
<clipPath id="clip0">
<rect width="21" height="21" fill="white" transform="translate(6 6)"/>
</clipPath>
</defs>
</svg>
