<svg width="27" height="15" viewBox="0 0 27 15" fill="none" xmlns="http://www.w3.org/2000/svg">
<path d="M26.1563 2.43746H0.8438C0.378031 2.43746 7.24792e-05 2.05943 7.24792e-05 1.59373C7.24792e-05 1.12796 0.378101 0.75 0.8438 0.75H26.1563C26.622 0.75 27 1.12803 27 1.59373C27 2.05943 26.622 2.43746 26.1563 2.43746Z" fill="black"/>
<path d="M0.8438 6.65625H26.1563C26.622 6.65625 27 7.03428 27 7.49998C27 7.96568 26.622 8.34371 26.1563 8.34371H0.8438C0.378031 8.34371 7.24792e-05 7.96568 7.24792e-05 7.49998C7.24792e-05 7.03428 0.378031 6.65625 0.8438 6.65625Z" fill="black"/>
<path d="M0.84379 12.5625H17.7188C18.1845 12.5625 18.5625 12.9405 18.5625 13.4062C18.5625 13.872 18.1845 14.25 17.7188 14.25H0.84379C0.378021 14.25 6.10352e-05 13.8719 6.10352e-05 13.4062C-9.53674e-06 12.9405 0.378021 12.5625 0.84379 12.5625Z" fill="black"/>
</svg>
