<svg width="13" height="12" viewBox="0 0 13 12" fill="none" xmlns="http://www.w3.org/2000/svg">
<path d="M6.5 11.6815C6.31493 11.6815 6.1365 11.6193 5.99744 11.5063C5.47227 11.0801 4.96595 10.6796 4.51923 10.3263L4.51695 10.3245C3.20725 9.28864 2.07628 8.39412 1.28937 7.51295C0.409721 6.52785 0 5.59384 0 4.57349C0 3.58213 0.36628 2.66755 1.0313 1.99808C1.70425 1.3207 2.62763 0.947632 3.63165 0.947632C4.38206 0.947632 5.0693 1.16781 5.67421 1.602C5.97949 1.82117 6.25621 2.08939 6.5 2.40226C6.74389 2.08939 7.02051 1.82117 7.32589 1.602C7.9308 1.16781 8.61803 0.947632 9.36845 0.947632C10.3724 0.947632 11.2959 1.3207 11.9688 1.99808C12.6338 2.66755 13 3.58213 13 4.57349C13 5.59384 12.5904 6.52785 11.7107 7.51285C10.9238 8.39412 9.79295 9.28855 8.48344 10.3243C8.03593 10.6781 7.52882 11.0792 7.00246 11.5064C6.8635 11.6193 6.68497 11.6815 6.5 11.6815ZM3.63165 1.65438C2.84286 1.65438 2.11823 1.94654 1.59108 2.4771C1.05609 3.01567 0.761421 3.76015 0.761421 4.57349C0.761421 5.43165 1.10509 6.19915 1.87563 7.062C2.62039 7.89605 3.72816 8.77216 5.01078 9.78662L5.01316 9.78846C5.46156 10.1431 5.96987 10.5452 6.49891 10.9745C7.03112 10.5444 7.54022 10.1417 7.98952 9.78644C9.27204 8.77198 10.3797 7.89605 11.1245 7.062C11.8949 6.19915 12.2386 5.43165 12.2386 4.57349C12.2386 3.76015 11.9439 3.01567 11.4089 2.4771C10.8819 1.94654 10.1571 1.65438 9.36845 1.65438C8.79061 1.65438 8.26009 1.82485 7.79165 2.16101C7.37419 2.46071 7.08339 2.83958 6.9129 3.10468C6.82522 3.241 6.67089 3.32238 6.5 3.32238C6.32911 3.32238 6.17478 3.241 6.0871 3.10468C5.91671 2.83958 5.62591 2.46071 5.20835 2.16101C4.73991 1.82485 4.20939 1.65438 3.63165 1.65438Z" fill="#E46845"/>
</svg>
