<svg width="16" height="14" viewBox="0 0 16 14" fill="none" xmlns="http://www.w3.org/2000/svg">
<path d="M15.8983 7.27225C15.7554 7.44334 12.3496 11.4615 7.99992 11.4615C3.65019 11.4615 0.244313 7.44334 0.101531 7.27241C-0.0338438 7.1101 -0.0338438 6.88996 0.101531 6.72764C0.244313 6.55655 3.65019 2.53841 7.99992 2.53841C12.3496 2.53841 15.7554 6.55658 15.8983 6.72751C16.0339 6.88979 16.0339 7.1101 15.8983 7.27225ZM7.99992 3.46148C4.79588 3.46148 2.02085 6.1284 1.19938 7.00026C2.01979 7.87288 4.78901 10.5384 7.99992 10.5384C11.2038 10.5384 13.9787 7.87196 14.8005 6.99963C13.9801 6.12704 11.2108 3.46148 7.99992 3.46148Z" fill="#0B852D"/>
<path d="M7.9998 9.76935C6.25474 9.76935 4.83496 8.52704 4.83496 7.0001C4.83496 5.47317 6.25474 4.23086 7.9998 4.23086C9.74487 4.23086 11.1646 5.47317 11.1646 7.0001C11.1646 8.52704 9.74487 9.76935 7.9998 9.76935ZM7.9998 5.15396C6.83637 5.15396 5.88993 5.98212 5.88993 7.0001C5.88993 8.01809 6.8364 8.84625 7.9998 8.84625C9.16321 8.84625 10.1097 8.01809 10.1097 7.0001C10.1097 5.98212 9.16324 5.15396 7.9998 5.15396Z" fill="#0B852D"/>
</svg>
