<svg width="33" height="33" viewBox="0 0 33 33" fill="none" xmlns="http://www.w3.org/2000/svg">
<circle cx="16.5" cy="16.5" r="16.5" fill="white" fill-opacity="0.1"/>
<path d="M21.3291 9.72127C19.6607 9.71236 18.0747 10.4451 17 11.7212C15.932 10.4364 14.3416 9.70155 12.6709 9.72127C9.53892 9.72127 7 12.2602 7 15.3921C7 20.7593 16.3671 25.9997 16.7468 26.2023C16.9001 26.3047 17.0999 26.3047 17.2532 26.2023C17.6329 25.9997 27 20.8352 27 15.3921C27 12.2602 24.461 9.72127 21.3291 9.72127ZM17 25.1896C15.5316 24.3289 8.01266 19.7466 8.01266 15.3921C8.01266 12.8195 10.0982 10.7339 12.6709 10.7339C14.2463 10.7132 15.7207 11.5078 16.5696 12.8351C16.742 13.0728 17.0745 13.1258 17.3121 12.9534C17.3575 12.9204 17.3975 12.8805 17.4304 12.8351C18.8383 10.6819 21.7252 10.0778 23.8784 11.4857C25.1965 12.3476 25.9899 13.8172 25.9873 15.3921C25.9873 19.7972 18.4683 24.3542 17 25.1896Z" fill="white"/>
</svg>
