<svg xmlns="http://www.w3.org/2000/svg" width="51" height="50" viewBox="0 0 51 50">
  <defs>
    <style>
      .cls-1 {
        fill-rule: evenodd;
      }
    </style>
  </defs>
  <path id="Forma_1" data-name="Forma 1" class="cls-1" d="M15,40a5,5,0,1,0,5,5A5.015,5.015,0,0,0,15,40ZM0,0V5H5l9,19-3.5,6a8.882,8.882,0,0,0-.5,2.5,5.015,5.015,0,0,0,5,5H45v-5H16a0.538,0.538,0,0,1-.5-0.5V31.75l2.25-4.25h18.5A4.559,4.559,0,0,0,40.5,25l9-16.25A1.376,1.376,0,0,0,50,7.5,2.362,2.362,0,0,0,47.5,5h-37L8.25,0H0ZM40,40a5,5,0,1,0,5,5A5.015,5.015,0,0,0,40,40Z"/>
</svg>
