<svg xmlns="http://www.w3.org/2000/svg" width="51" height="50" viewBox="0 0 51 50">
  <defs>
    <style>
      .cls-1 {
        fill: #af241e;
        fill-rule: evenodd;
      }
    </style>
  </defs>
  <path id="Forma_1" data-name="Forma 1" class="cls-1" d="M50.563,24.9a2.451,2.451,0,0,0-.2-3.508L27.384,1.285a2.864,2.864,0,0,0-3.736.043L0.593,22.462a2.437,2.437,0,0,0-.111,3.5l0.578,0.6a2.521,2.521,0,0,0,3.46.266l1.723-1.543v22.59a2.507,2.507,0,0,0,2.508,2.508h8.987a2.507,2.507,0,0,0,2.508-2.508v-15.8H31.709v15.8a2.37,2.37,0,0,0,2.356,2.507h9.524A2.508,2.508,0,0,0,46.1,47.878V25.607s0.475,0.416,1.063.933,1.816,0.1,2.749-.924Z"/>
</svg>
