<svg xmlns="http://www.w3.org/2000/svg" width="51" height="50" viewBox="0 0 51 50">
  <defs>
    <style>
      .cls-1 {
        fill: #af241e;
        fill-rule: evenodd;
      }
    </style>
  </defs>
  <path id="Forma_1" data-name="Forma 1" class="cls-1" d="M11.286,38.907A24.274,24.274,0,0,1,4.055,24,15.482,15.482,0,0,0,.679,33.7a15.648,15.648,0,0,0,1.515,6.684L0.154,46.3A2.765,2.765,0,0,0,.823,49.18,2.789,2.789,0,0,0,2.8,50a2.834,2.834,0,0,0,.919-0.154l5.938-2.032a15.818,15.818,0,0,0,6.711,1.509,15.63,15.63,0,0,0,9.9-3.489A24.475,24.475,0,0,1,11.286,38.907Zm39.531,0.562-2.962-8.586a21.527,21.527,0,0,0-34.588-24.6A21.468,21.468,0,0,0,28.5,42.912h0.034a21.682,21.682,0,0,0,9.431-2.179l8.621,2.95a3.367,3.367,0,0,0,1.092.183A3.324,3.324,0,0,0,50.817,39.469ZM30.581,28.9H19.457a1.512,1.512,0,1,1,0-3.024H30.581A1.512,1.512,0,1,1,30.581,28.9Zm6.962-6.217H19.457a1.512,1.512,0,1,1,0-3.024H37.542A1.512,1.512,0,1,1,37.542,22.684Zm0-6.218H19.457a1.512,1.512,0,1,1,0-3.024H37.542A1.512,1.512,0,1,1,37.542,16.467Z"/>
</svg>
