<svg xmlns="http://www.w3.org/2000/svg" width="213" height="208" viewBox="0 0 213 208">
  <defs>
    <style>
      .cls-1 {
        fill-rule: evenodd;
      }
    </style>
  </defs>
  <path id="Forma_1" data-name="Forma 1" class="cls-1" d="M189.9,171.524L180.607,54.479a14.63,14.63,0,0,0-14.526-13.446H147.724V68.218a6.095,6.095,0,0,1-12.189,0V41.033H79.465V68.218a6.095,6.095,0,0,1-12.189,0V41.033H48.918a14.628,14.628,0,0,0-14.525,13.43L25.1,171.54A33.878,33.878,0,0,0,58.881,208h97.238A33.873,33.873,0,0,0,189.9,171.524Zm-54.941-59.6-31.521,31.506a6.093,6.093,0,0,1-8.622,0L80.042,128.659a6.092,6.092,0,0,1,8.618-8.614L99.126,130.5l27.215-27.2A6.093,6.093,0,1,1,134.958,111.919ZM107.5,0A40.263,40.263,0,0,0,67.276,40.209v0.824h12.19V40.209a28.035,28.035,0,0,1,56.071,0v0.824h12.189V40.209A40.264,40.264,0,0,0,107.5,0Z"/>
</svg>
