<svg xmlns="http://www.w3.org/2000/svg" width="51" height="50" viewBox="0 0 51 50">
  <defs>
    <style>
      .cls-1 {
        fill: #af241e;
        fill-rule: evenodd;
      }
    </style>
  </defs>
  <path id="Forma_1" data-name="Forma 1" class="cls-1" d="M33.533,33.507a14.8,14.8,0,0,0-.1-3.634l2.794-1.227a17.982,17.982,0,0,0-1.255-3.921,18.225,18.225,0,0,0-2.119-3.541l-2.8,1.226a15.217,15.217,0,0,0-2.677-2.5l1.1-2.813a18.66,18.66,0,0,0-7.743-2.93l-1.1,2.815a15.492,15.492,0,0,0-3.69.1l-1.238-2.739A18.613,18.613,0,0,0,7.142,17.68L8.372,20.4a15.157,15.157,0,0,0-2.541,2.637L2.982,21.961A17.792,17.792,0,0,0,1.046,25.6,18.186,18.186,0,0,0,0,29.583l2.856,1.08a14.806,14.806,0,0,0,.1,3.634L0.163,35.522a17.966,17.966,0,0,0,1.255,3.921,18.2,18.2,0,0,0,2.12,3.541l2.794-1.226a15.161,15.161,0,0,0,2.678,2.5l-1.1,2.815a18.658,18.658,0,0,0,7.743,2.93l1.1-2.815a15.54,15.54,0,0,0,3.69-.1l1.238,2.738a18.612,18.612,0,0,0,7.57-3.342l-1.231-2.721a15.157,15.157,0,0,0,2.541-2.637l2.847,1.076a17.805,17.805,0,0,0,1.936-3.643,18,18,0,0,0,1.044-3.98Zm-7.591,1.5a8.335,8.335,0,0,1-10.718,4.7,8.133,8.133,0,0,1-4.771-10.553,8.336,8.336,0,0,1,10.716-4.7A8.133,8.133,0,0,1,25.942,35.011ZM49.005,11.078a8.652,8.652,0,0,0-.154-1.6l2.142-1.219a11.035,11.035,0,0,0-2.958-5.056L45.888,4.428a8.859,8.859,0,0,0-2.807-1.594V0.394a11.123,11.123,0,0,0-5.924,0V2.835A8.886,8.886,0,0,0,34.35,4.429L32.2,3.208a11.058,11.058,0,0,0-2.958,5.056l2.143,1.219a8.313,8.313,0,0,0,0,3.194l-2.143,1.219A11.054,11.054,0,0,0,32.2,18.95l2.147-1.221a8.869,8.869,0,0,0,2.807,1.594v2.441a11.122,11.122,0,0,0,5.924,0V19.323a8.878,8.878,0,0,0,2.807-1.594l2.147,1.221a11.035,11.035,0,0,0,2.958-5.056L48.85,12.675A8.593,8.593,0,0,0,49.005,11.078ZM40.12,15.163a4.085,4.085,0,1,1,4.146-4.085A4.117,4.117,0,0,1,40.12,15.163Z"/>
</svg>
