<svg xmlns="http://www.w3.org/2000/svg" width="51" height="50" viewBox="0 0 51 50">
  <defs>
    <style>
      .cls-1 {
        fill: #af241e;
        fill-rule: evenodd;
      }
    </style>
  </defs>
  <path id="Forma_1" data-name="Forma 1" class="cls-1" d="M18.41,34.688l-5.981-3.665,0.618-1.686-0.071.028a4.338,4.338,0,0,1-3.81-.306A4.278,4.278,0,0,1,7.1,25.868l-0.857-7.6c-0.014-.128,0-0.252,0-0.379L2.674,27.62a6.429,6.429,0,0,0,.27,4.087c0.075,0.264,2.513,6.985,2.513,6.985L0.591,45.228a2.979,2.979,0,0,0,.633,4.186,3.03,3.03,0,0,0,4.217-.628l5.843-7.846a2.975,2.975,0,0,0,.4-2.835l-0.249-.657,2.223,1.363L12.93,46.736a3,3,0,0,0,2.731,3.252C15.754,50,15.846,50,15.937,50a3.008,3.008,0,0,0,3-2.723l0.893-9.771A2.987,2.987,0,0,0,18.41,34.688Zm-3.6-17.373,0.229,2.03,1.886-.746a5.106,5.106,0,0,0-3.229-6.038,5.175,5.175,0,0,0-6.225,2.245A4.3,4.3,0,0,1,14.808,17.315Zm0.027-6.731A5.292,5.292,0,1,0,9.5,5.292,5.311,5.311,0,0,0,14.835,10.584ZM48.738,31H32.8a2.254,2.254,0,0,0-2.262,2.245v6.308A2.254,2.254,0,0,0,32.8,41.8h15.94A2.254,2.254,0,0,0,51,39.553V33.245A2.254,2.254,0,0,0,48.738,31ZM30.968,27.9h8.885a2.253,2.253,0,0,0,2.262-2.245V20.036a2.253,2.253,0,0,0-2.262-2.245H30.968a2.253,2.253,0,0,0-2.262,2.245v5.619A2.253,2.253,0,0,0,30.968,27.9ZM46.692,44.15H26.875V24.585a1.716,1.716,0,0,0-1.723-1.71H22.56a2.535,2.535,0,0,0,.008-1.905,2.6,2.6,0,0,0-3.357-1.434l-5.636,2.229-0.481-4.258a2.584,2.584,0,0,0-5.136.57l0.857,7.6a2.562,2.562,0,0,0,1.239,1.916,2.6,2.6,0,0,0,2.285.183l5.616-2.22a1.7,1.7,0,0,0,1.381.74h4.093V45.861a1.716,1.716,0,0,0,1.723,1.711h2.1a2.858,2.858,0,0,0,5.593,0h6.469a2.858,2.858,0,0,0,5.593,0h1.78A1.711,1.711,0,1,0,46.692,44.15Z"/>
</svg>
